<svg width="226" height="47" viewBox="0 0 226 47" fill="none" xmlns="http://www.w3.org/2000/svg">
<path d="M11.0695 46.0001H21.2455V1.20006H11.3255L11.1975 2.80006C10.9415 6.51206 9.21348 8.24006 5.43748 8.43206L0.125488 8.68806V16.8801H11.0695V46.0001ZM52.635 46.6401C66.587 46.6401 77.019 36.7841 77.019 23.6001C77.019 10.4801 66.587 0.560059 52.635 0.560059C38.683 0.560059 28.2505 10.4801 28.2505 23.6001C28.2505 36.7841 38.683 46.6401 52.635 46.6401ZM52.635 37.1041C44.891 37.1041 39.451 31.5361 39.451 23.6001C39.451 15.7281 44.891 10.1601 52.635 10.1601C60.379 10.1601 65.819 15.7281 65.819 23.6001C65.819 31.5361 60.379 37.1041 52.635 37.1041ZM106.697 46.6401C120.649 46.6401 131.081 36.7841 131.081 23.6001C131.081 10.4801 120.649 0.560059 106.697 0.560059C92.745 0.560059 82.313 10.4801 82.313 23.6001C82.313 36.7841 92.745 46.6401 106.697 46.6401ZM106.697 37.1041C98.953 37.1041 93.513 31.5361 93.513 23.6001C93.513 15.7281 98.953 10.1601 106.697 10.1601C114.441 10.1601 119.881 15.7281 119.881 23.6001C119.881 31.5361 114.441 37.1041 106.697 37.1041ZM160.76 46.6401C174.712 46.6401 185.144 36.7841 185.144 23.6001C185.144 10.4801 174.712 0.560059 160.76 0.560059C146.808 0.560059 136.376 10.4801 136.376 23.6001C136.376 36.7841 146.808 46.6401 160.76 46.6401ZM160.76 37.1041C153.016 37.1041 147.576 31.5361 147.576 23.6001C147.576 15.7281 153.016 10.1601 160.76 10.1601C168.504 10.1601 173.944 15.7281 173.944 23.6001C173.944 31.5361 168.504 37.1041 160.76 37.1041ZM225.965 19.8241H213.677V7.66406H204.909V19.8241H192.685V28.7201H204.909V40.8801H213.677V28.7201H225.965V19.8241Z" fill="#050038"/>
</svg>
