<svg width="182" height="46" viewBox="0 0 182 46" fill="none" xmlns="http://www.w3.org/2000/svg">
<path d="M41.9499 17.352H29.9819V3.39996H19.5499V17.352H11.0379V0.199951H0.606201V25.544H19.3579V45H29.9819V25.544H41.9499V17.352ZM66.7809 13.896C62.7489 13.896 59.4209 15.048 56.8609 17.16L57.2449 9.15996H79.9009V0.199951H48.7969L48.0929 25.224H58.3329C59.8049 23.368 61.9169 22.472 64.4769 22.472C68.8929 22.472 71.9649 25.16 71.9649 29.512C71.9649 33.736 69.0209 36.616 64.4769 36.616C59.9329 36.616 56.8609 33.8 56.6689 29.064H45.7249C45.5969 39.048 53.2129 45.64 64.2849 45.64C75.4209 45.64 82.9089 38.984 82.9089 29.256C82.9089 19.976 76.1889 13.896 66.7809 13.896ZM90.7569 45H100.933V10.952L101.317 10.888L110.661 41.16H119.941L129.349 10.888L129.733 10.952V45H139.909V0.199951H123.781L115.461 30.152H115.205L106.885 0.199951H90.7569V45ZM181.996 18.824H169.708V6.66396H160.94V18.824H148.716V27.72H160.94V39.88H169.708V27.72H181.996V18.824Z" fill="#050038"/>
</svg>
