<svg width="113" height="47" viewBox="0 0 113 47" fill="none" xmlns="http://www.w3.org/2000/svg">
<path d="M0.288086 46H10.9121V1.2H0.288086V46ZM39.6341 46.64C51.8581 46.64 59.3461 40.496 59.3461 31.152C59.3461 23.472 54.4821 19.056 45.3301 17.904L37.0101 16.816C34.7701 16.496 32.0181 15.728 32.0181 12.912C32.0181 10.288 34.3221 8.624 37.6501 8.624C41.3621 8.624 43.6661 10.288 44.4341 13.616L55.7621 13.552C55.1221 5.552 48.2741 0.559998 38.0341 0.559998C27.6021 0.559998 21.3301 5.808 21.3301 14.064C21.3301 20.912 25.5541 24.88 33.9381 25.968L43.0901 27.12C45.5861 27.504 48.2101 28.4 48.2101 31.792C48.2101 35.568 45.0101 37.808 39.8261 37.808C33.4261 37.808 29.5861 34.416 29.2021 28.336H17.1701C17.6181 38.832 25.8101 46.64 39.6341 46.64ZM87.9471 46.64C101.899 46.64 112.331 36.784 112.331 23.6C112.331 10.48 101.899 0.559998 87.9471 0.559998C73.9951 0.559998 63.5631 10.48 63.5631 23.6C63.5631 36.784 73.9951 46.64 87.9471 46.64ZM87.9471 37.104C80.2031 37.104 74.7631 31.536 74.7631 23.6C74.7631 15.728 80.2031 10.16 87.9471 10.16C95.6911 10.16 101.131 15.728 101.131 23.6C101.131 31.536 95.6911 37.104 87.9471 37.104Z" fill="#050038"/>
</svg>
