<svg width="173" height="47" viewBox="0 0 173 47" fill="none" xmlns="http://www.w3.org/2000/svg">
<path d="M11.632 46.0001H21.808V1.20006H11.888L11.76 2.80006C11.504 6.51206 9.77598 8.24006 5.99998 8.43206L0.687988 8.68806V16.8801H11.632V46.0001ZM53.197 46.6401C67.149 46.6401 77.581 36.7841 77.581 23.6001C77.581 10.4801 67.149 0.560059 53.197 0.560059C39.245 0.560059 28.813 10.4801 28.813 23.6001C28.813 36.7841 39.245 46.6401 53.197 46.6401ZM53.197 37.1041C45.453 37.1041 40.013 31.5361 40.013 23.6001C40.013 15.7281 45.453 10.1601 53.197 10.1601C60.941 10.1601 66.381 15.7281 66.381 23.6001C66.381 31.5361 60.941 37.1041 53.197 37.1041ZM107.26 46.6401C121.212 46.6401 131.644 36.7841 131.644 23.6001C131.644 10.4801 121.212 0.560059 107.26 0.560059C93.308 0.560059 82.876 10.4801 82.876 23.6001C82.876 36.7841 93.308 46.6401 107.26 46.6401ZM107.26 37.1041C99.516 37.1041 94.076 31.5361 94.076 23.6001C94.076 15.7281 99.516 10.1601 107.26 10.1601C115.004 10.1601 120.444 15.7281 120.444 23.6001C120.444 31.5361 115.004 37.1041 107.26 37.1041ZM172.465 19.8241H160.177V7.66406H151.409V19.8241H139.185V28.7201H151.409V40.8801H160.177V28.7201H172.465V19.8241Z" fill="#050038"/>
</svg>
