<svg width="75" height="45" viewBox="0 0 75 45" fill="none" xmlns="http://www.w3.org/2000/svg">
<path d="M47.52 18.312V10.184H37.3439L37.472 0.200012H29.024L28.832 10.184H19.168L19.296 0.200012H10.784L10.656 10.184H0.0959473V18.312H10.528L10.3999 26.952H0.0959473V35.08H10.272L10.144 45H18.656L18.784 35.08H28.5119L28.384 45H36.832L36.96 35.08H47.52V26.952H37.088L37.216 18.312H47.52ZM28.64 26.952H18.912L19.0399 18.312H28.768L28.64 26.952ZM64.132 45H74.308V0.200012H64.388L64.2599 1.80002C64.0039 5.51202 62.276 7.24001 58.5 7.43201L53.188 7.68802V15.88H64.132V45Z" fill="#050038"/>
</svg>
