<svg width="147" height="47" viewBox="0 0 147 47" fill="none" xmlns="http://www.w3.org/2000/svg">
<path d="M19.7601 0.559998C8.56009 0.559998 0.944092 7.536 0.944092 17.328C0.944092 26.544 7.72809 33.008 16.8801 33.008C18.2241 33.008 19.3761 32.816 20.4641 32.496L8.11209 46H20.2721L31.1521 33.2C33.9041 29.936 38.6401 24.432 38.6401 17.008C38.6401 7.408 30.9601 0.559998 19.7601 0.559998ZM19.8241 25.2C15.2161 25.2 12.0161 22.064 12.0161 17.456C12.0161 12.848 15.2801 9.712 19.8241 9.712C24.4961 9.712 27.6321 12.912 27.6321 17.456C27.6321 22 24.4961 25.2 19.8241 25.2ZM62.5101 0.559998C51.3101 0.559998 43.6941 7.536 43.6941 17.328C43.6941 26.544 50.4781 33.008 59.6301 33.008C60.9741 33.008 62.1261 32.816 63.2141 32.496L50.8621 46H63.0221L73.9021 33.2C76.6541 29.936 81.3901 24.432 81.3901 17.008C81.3901 7.408 73.7101 0.559998 62.5101 0.559998ZM62.5741 25.2C57.9661 25.2 54.7661 22.064 54.7661 17.456C54.7661 12.848 58.0301 9.712 62.5741 9.712C67.2461 9.712 70.3821 12.912 70.3821 17.456C70.3821 22 67.2461 25.2 62.5741 25.2ZM99.7681 24.688C106.936 24.688 112.312 19.504 112.312 12.656C112.312 5.744 106.936 0.559998 99.7681 0.559998C92.6001 0.559998 87.2881 5.744 87.2881 12.656C87.2881 19.504 92.6001 24.688 99.7681 24.688ZM95.2881 46H105.656L138.552 1.2H128.12L95.2881 46ZM99.7681 17.008C97.3361 17.008 95.6081 15.216 95.6081 12.656C95.6081 10.032 97.3361 8.24 99.7681 8.24C102.264 8.24 103.992 10.032 103.992 12.656C103.992 15.216 102.264 17.008 99.7681 17.008ZM134.008 46.64C141.176 46.64 146.552 41.52 146.552 34.608C146.552 27.76 141.176 22.576 134.008 22.576C126.904 22.576 121.528 27.76 121.528 34.608C121.528 41.52 126.904 46.64 134.008 46.64ZM134.008 39.024C131.576 39.024 129.848 37.168 129.848 34.608C129.848 32.048 131.576 30.192 134.008 30.192C136.504 30.192 138.232 32.048 138.232 34.608C138.232 37.168 136.504 39.024 134.008 39.024Z" fill="#050038"/>
</svg>
