<svg width="45" height="33" viewBox="0 0 45 33" fill="none" xmlns="http://www.w3.org/2000/svg">
<path d="M41.4429 20.4896C41.4429 19.8439 41.9627 19.3201 42.6027 19.3201C43.2431 19.3201 43.7623 19.8439 43.7623 20.4896C43.7623 21.1353 43.2431 21.6589 42.6027 21.6589C41.9627 21.6589 41.4429 21.1353 41.4429 20.4896Z" fill="#050038"/>
<path d="M4.45164 17.3917C4.45164 16.6509 4.30969 16.1013 4.02576 15.7432C3.74148 15.3855 3.31085 15.2069 2.73193 15.2069H2.11609V19.7369H2.58726C3.2303 19.7369 3.70153 19.5447 4.00157 19.1589C4.30126 18.7737 4.45164 18.1846 4.45164 17.3917ZM6.6479 17.3145C6.6479 18.6642 6.28811 19.7041 5.56855 20.434C4.84898 21.1643 3.83746 21.5294 2.53358 21.5294H0V13.4424H2.71043C3.96765 13.4424 4.93825 13.7744 5.62223 14.438C6.3059 15.102 6.6479 16.0604 6.6479 17.3145Z" fill="#050038"/>
<path d="M33.8671 19.991C34.1393 19.991 34.4635 19.9213 34.8417 19.7829V21.3007C34.5702 21.4212 34.3114 21.5075 34.0658 21.5585C33.8198 21.6103 33.5325 21.6361 33.2019 21.6361C32.525 21.6361 32.037 21.4645 31.738 21.122C31.4389 20.7795 31.2893 20.2537 31.2893 19.544V17.0573H30.5828V15.498H31.2893V13.9341L33.3207 13.6011V15.498H34.6078V17.0573H33.3207V19.4052C33.3207 19.7958 33.503 19.991 33.8671 19.991Z" fill="#050038"/>
<path d="M37.3855 17.7655C37.413 17.4352 37.5067 17.1933 37.6665 17.0386C37.8269 16.8843 38.0249 16.8071 38.2618 16.8071C38.5202 16.8071 38.7256 16.8937 38.878 17.0684C39.0314 17.242 39.1112 17.4745 39.1176 17.7655H37.3855ZM40.2289 16.1019C39.7496 15.6281 39.0696 15.3909 38.19 15.3909C37.2654 15.3909 36.5539 15.6633 36.0551 16.2082C35.5568 16.753 35.3074 17.5348 35.3074 18.5534C35.3074 19.5399 35.5769 20.3006 36.1145 20.8346C36.6525 21.3686 37.408 21.636 38.3809 21.636C38.8481 21.636 39.2503 21.6038 39.5872 21.5399C39.9221 21.4766 40.2463 21.3622 40.5608 21.197L40.251 19.8376C40.0225 19.9317 39.805 20.0041 39.5996 20.0518C39.3029 20.1212 38.9774 20.1561 38.6229 20.1561C38.2344 20.1561 37.9275 20.0603 37.7027 19.8688C37.4778 19.6769 37.358 19.4123 37.3442 19.0752H40.9481V18.149C40.9481 17.2579 40.7085 16.5754 40.2289 16.1019Z" fill="#050038"/>
<path d="M13.6658 21.5298H15.6818V13.4089H13.6658V21.5298Z" fill="#050038"/>
<path d="M18.5143 18.5007C18.5143 19.0186 18.5814 19.4135 18.7153 19.6849C18.8496 19.9566 19.0745 20.0923 19.3905 20.0923C19.7034 20.0923 19.9245 19.9566 20.0534 19.6849C20.1823 19.4135 20.2464 19.0186 20.2464 18.5007C20.2464 17.9857 20.1812 17.5972 20.0507 17.335C19.9198 17.072 19.6967 16.9403 19.3802 16.9403C19.0708 16.9403 18.8496 17.0713 18.7153 17.3319C18.5814 17.5928 18.5143 17.9823 18.5143 18.5007ZM22.2984 18.5007C22.2984 19.4872 22.0419 20.2568 21.5278 20.8084C21.0139 21.3603 20.2947 21.6365 19.3701 21.6365C18.4834 21.6365 17.7776 21.3543 17.2537 20.7898C16.7291 20.2253 16.467 19.4626 16.467 18.5007C16.467 17.5173 16.7238 16.7532 17.238 16.2083C17.7521 15.6635 18.473 15.3911 19.4013 15.3911C19.9749 15.3911 20.4823 15.5173 20.922 15.7694C21.362 16.0216 21.7016 16.3826 21.9403 16.853C22.1792 17.3228 22.2984 17.8724 22.2984 18.5007Z" fill="#050038"/>
<path d="M23.0989 21.5301H25.1153V18.4221V15.4978H23.0989V21.5301Z" fill="#050038"/>
<path d="M23.0989 14.7681H25.1153V13.4087H23.0989V14.7681Z" fill="#050038"/>
<path d="M29.2002 19.9915C29.4725 19.9915 29.7966 19.9217 30.1749 19.7834V21.3011C29.903 21.4216 29.6446 21.5079 29.3989 21.559C29.1533 21.6108 28.865 21.6365 28.5351 21.6365C27.8581 21.6365 27.3701 21.4649 27.0704 21.1225C26.7721 20.78 26.6223 20.2541 26.6223 19.5444V17.0578H25.9163V15.4984H26.6223V13.9579L28.6542 13.6016V15.4984H29.9406V17.0578H28.6542V19.4057C28.6542 19.7962 28.8365 19.9915 29.2002 19.9915Z" fill="#050038"/>
<path d="M9.32372 17.766C9.3512 17.4357 9.44488 17.1937 9.60456 17.0391C9.76472 16.8847 9.96306 16.8076 10.2004 16.8076C10.4581 16.8076 10.6635 16.8942 10.8162 17.0689C10.9696 17.2425 11.0491 17.475 11.0562 17.766H9.32372ZM12.1674 16.1024C11.6878 15.6285 11.0082 15.3914 10.1282 15.3914C9.20324 15.3914 8.49204 15.6637 7.99363 16.2086C7.49529 16.7534 7.24561 17.5352 7.24561 18.5538C7.24561 19.5403 7.51479 20.301 8.05308 20.8351C8.59076 21.369 9.34622 21.6364 10.3192 21.6364C10.7864 21.6364 11.1884 21.6042 11.5253 21.5403C11.8603 21.477 12.1846 21.3626 12.4994 21.1975L12.1893 19.838C11.9607 19.9322 11.7432 20.0046 11.5381 20.0523C11.2408 20.1216 10.9156 20.1566 10.5611 20.1566C10.1728 20.1566 9.86576 20.0607 9.6409 19.8692C9.4157 19.6773 9.29624 19.4127 9.28247 19.0756H12.8863V18.1494C12.8863 17.2583 12.6467 16.5758 12.1674 16.1024Z" fill="#050038"/>
</svg>
