<svg width="27" height="33" viewBox="0 0 27 33" fill="none" xmlns="http://www.w3.org/2000/svg">
<path d="M12.2314 18.9171H15.5084V17.8029H15.1486C15.1486 18.2291 14.8425 18.5433 14.375 18.5433H13.8705V16.88H14.4145V16.511H12.2314V16.88H12.7814V18.5433H12.2314V18.9159V18.9171Z" fill="#050038"/>
<path d="M17.0846 18.9183L18.359 18.9196L19.4409 16.8811H19.9837V16.511H18.3518V16.8811H18.824L18.035 18.3643L17.2364 16.8811H17.809V16.511H15.4419L15.4407 16.8811H15.9834L17.0846 18.9183Z" fill="#050038"/>
<path d="M5.70625 16.511H3.33909L3.33789 16.8811H3.87947L4.98175 18.9183L6.25619 18.9196L7.33816 16.8811H7.88093V16.511H6.24902V16.8811H6.72007L5.93221 18.3643L5.13359 16.8811H5.70625V16.511Z" fill="#050038"/>
<path d="M8.19817 17.7166C8.19817 18.4253 8.75889 18.9891 9.8827 18.9891C11.0065 18.9891 11.5612 18.4253 11.5612 17.7166C11.5612 17.0177 10.973 16.46 9.87554 16.46C8.77921 16.46 8.19702 17.0177 8.19702 17.7166H8.19817ZM10.4613 17.7227C10.4542 18.1598 10.276 18.6153 9.86474 18.6079C9.46427 18.6006 9.2885 18.1501 9.29572 17.702C9.30409 17.2381 9.52164 16.8338 9.89708 16.8399C10.2724 16.8472 10.4697 17.2588 10.4625 17.7227H10.4613Z" fill="#050038"/>
<path d="M20.2966 17.7166C20.2966 18.4253 20.8574 18.9891 21.9812 18.9891C23.105 18.9891 23.6597 18.4253 23.6597 17.7166C23.6597 17.0177 23.0715 16.46 21.9752 16.46C20.8789 16.46 20.2966 17.0177 20.2966 17.7166ZM21.9955 16.8399C22.3697 16.8472 22.5681 17.2588 22.5598 17.7227C22.5514 18.1598 22.3745 18.6153 21.9632 18.6079C21.5627 18.6006 21.387 18.1501 21.3941 17.702C21.4025 17.2381 21.6201 16.8338 21.9955 16.8399Z" fill="#050038"/>
<path d="M24.6089 10.0624L23.2376 11.459C24.4129 13.3063 25.0967 15.509 25.0967 17.875C25.0967 24.3981 19.9045 29.6865 13.5 29.6865C7.09553 29.6865 1.9033 24.3981 1.9033 17.875C1.9033 11.3519 7.09553 6.06354 13.5 6.06354C15.8277 6.06354 17.9952 6.76248 19.8125 7.96558L21.1837 6.56888C19.0031 5.02851 16.3549 4.125 13.5 4.125C6.04463 4.125 0 10.2803 0 17.875C0 25.4684 6.04344 31.625 13.5 31.625C20.9554 31.625 27 25.4697 27 17.875C27 14.9733 26.1165 12.281 24.6101 10.0624H24.6089Z" fill="#050038"/>
<path d="M20.2895 4.6665V5.05251C21.1085 5.50426 21.8784 6.03761 22.5921 6.6367L20.6685 8.59591C21.3942 9.17554 22.0493 9.84283 22.6196 10.5807L24.5408 8.62396C25.1302 9.35209 25.6539 10.1375 26.0974 10.9595H26.4669V4.6665H20.2883H20.2895Z" fill="#050038"/>
</svg>
