<svg width="60" height="33" viewBox="0 0 60 33" fill="none" xmlns="http://www.w3.org/2000/svg">
<path d="M34.6349 18.02C34.6349 16.5942 34.0296 15.3345 31.9825 15.3345C30.9323 15.3345 30.098 15.6363 29.6456 15.9005L29.9772 17.0444C30.3936 16.7809 31.0582 16.5639 31.6854 16.5639C32.7218 16.5625 32.8915 17.1536 32.8915 17.5336V17.6252C30.6293 17.6214 29.1992 18.4097 29.1992 20.0148C29.1992 20.9956 29.9252 21.9151 31.1943 21.9151C31.9686 21.9151 32.6229 21.5999 33.0138 21.1025H33.0518C33.0518 21.1025 33.3095 22.1896 34.7344 21.7741C34.6619 21.3187 34.6349 20.8391 34.6349 20.2561V18.02ZM32.9472 19.5255C32.9472 19.6406 32.9377 19.7602 32.904 19.8628C32.7737 20.3019 32.3243 20.6693 31.7652 20.6693C31.2932 20.6693 30.9228 20.4 30.9228 19.8354C30.9228 18.972 31.8683 18.7344 32.9472 18.7403" fill="#050038"/>
<path d="M0 13.3948C0 13.3948 1.47766 19.4905 1.7126 20.478C1.98925 21.6321 2.48474 22.0587 3.91485 21.7746L4.83848 17.9946C5.07196 17.0581 5.23076 16.3866 5.38154 15.4323H5.40715C5.5118 16.3961 5.66259 17.0581 5.85361 17.9976C5.85361 17.9976 6.23052 19.7149 6.42595 20.6145C6.61622 21.5141 7.15193 22.0816 8.55498 21.7746L10.7536 13.3948H8.97873L8.22416 17.0198C8.02439 18.0699 7.84289 18.8972 7.70161 19.8595H7.67598C7.54868 18.9075 7.38689 18.1142 7.17907 17.0854L6.3974 13.3948H4.54574L3.71137 16.9909C3.4735 18.0891 3.25102 18.9695 3.11122 19.9015H3.08708C2.9429 19.0271 2.7475 17.9134 2.54035 16.8567C2.54035 16.8567 2.04487 14.2819 1.86996 13.3948" fill="#050038"/>
<path d="M15.6994 18.02C15.6994 16.5942 15.0926 15.3345 13.0455 15.3345C11.9982 15.3345 11.1624 15.6363 10.7101 15.9005L11.0416 17.0444C11.4566 16.7809 12.1204 16.5639 12.7498 16.5639C13.7862 16.5625 13.956 17.1536 13.956 17.5336V17.6252C11.6938 17.6214 10.2622 18.4097 10.2622 20.0148C10.2622 20.9956 10.9911 21.9151 12.2543 21.9151C13.036 21.9151 13.6845 21.5999 14.0753 21.1025H14.1148C14.1148 21.1025 14.3739 22.1896 15.7974 21.7741C15.7243 21.3187 15.6994 20.8391 15.6994 20.2561V18.02ZM14.0102 19.5255C14.0102 19.6406 14.0007 19.7602 13.9684 19.8628C13.8366 20.3019 13.3873 20.6693 12.8267 20.6693C12.3576 20.6693 11.9858 20.4 11.9858 19.8354C11.9858 18.972 12.9313 18.7344 14.0102 18.7403" fill="#050038"/>
<path d="M16.6204 13.3948V21.7716H18.3096V19.9953V13.3948H16.6204Z" fill="#050038"/>
<path d="M39.8191 13.3948V19.5754C39.8191 20.4285 39.9779 21.0233 40.3196 21.3879C40.6198 21.7074 41.1108 21.9155 41.6956 21.9155C42.1977 21.9155 42.6887 21.8181 42.9208 21.7333L42.9003 20.4027C42.7268 20.4432 42.5285 20.478 42.2562 20.478C41.6795 20.478 41.4892 20.1097 41.4892 19.3436V16.9777H42.9603V15.377H41.4892V13.3948" fill="#050038"/>
<path d="M35.4534 15.4798V21.7741H37.1996V18.5506C37.1996 18.3772 37.2106 18.2273 37.2377 18.0886C37.3679 17.4089 37.8796 16.9787 38.6165 16.9787C38.8222 16.9787 38.962 17.0016 39.1172 17.0259V15.3758C38.9869 15.3522 38.8983 15.3396 38.738 15.3396C38.0844 15.3396 37.3438 15.758 37.0313 16.6694H36.9881V15.4798" fill="#050038"/>
<path d="M19.2908 15.4798V21.7741H20.9924V18.0798C20.9924 17.9063 21.0114 17.7292 21.0722 17.569C21.2105 17.1949 21.5537 16.7617 22.1048 16.7617C22.7899 16.7617 23.1134 17.3447 23.1134 18.186V21.7741H24.8106V18.0355C24.8106 17.8723 24.8333 17.6724 24.8809 17.5277C25.017 17.1034 25.3888 16.7617 25.9026 16.7617C26.595 16.7617 26.9302 17.3322 26.9302 18.324V21.7741H28.6259V18.0628C28.6259 16.113 27.6423 15.3396 26.5254 15.3396C26.0344 15.3396 25.6435 15.4614 25.2922 15.6798C24.9951 15.8635 24.7345 16.1226 24.501 16.4613H24.4755C24.2068 15.7839 23.5759 15.3396 22.7518 15.3396C21.695 15.3396 21.2149 15.8776 20.9324 16.3322H20.9067V15.4798" fill="#050038"/>
<path d="M52.0997 15.1973C52.4333 15.1973 52.7144 15.0217 52.751 14.7958L53.0818 11.0173C53.0818 10.6432 52.6449 10.3369 52.0997 10.3369C51.5514 10.3369 51.1174 10.6432 51.1174 11.0173L51.4511 14.7958C51.4863 15.0217 51.7658 15.1973 52.0997 15.1973Z" fill="#050038"/>
<path d="M50.0696 16.3797C50.235 16.0845 50.2254 15.7568 50.0469 15.6107L46.9583 13.4329C46.637 13.244 46.1562 13.4691 45.881 13.9458C45.6065 14.4218 45.6621 14.9561 45.9769 15.1413L49.3962 16.7398C49.6151 16.8225 49.9012 16.6689 50.0696 16.3767" fill="#050038"/>
<path d="M54.1286 16.3766C54.3035 16.6689 54.5896 16.8224 54.8026 16.7442L58.222 15.1413C58.5397 14.9523 58.5872 14.4232 58.3187 13.9472C58.0442 13.4704 57.5604 13.2468 57.2399 13.4321L54.1506 15.6077C53.9793 15.756 53.9669 16.0851 54.1322 16.3796" fill="#050038"/>
<path d="M52.0997 19.917C52.4333 19.917 52.7144 20.0926 52.751 20.3185L53.0818 24.0969C53.0818 24.4711 52.6449 24.7744 52.0997 24.7744C51.5514 24.7744 51.1174 24.4711 51.1174 24.0969L51.4511 20.3185C51.4863 20.0926 51.7658 19.917 52.0997 19.917Z" fill="#050038"/>
<path d="M54.1286 18.7384C54.3035 18.4454 54.5896 18.2889 54.8026 18.3738L58.222 19.9738C58.5397 20.159 58.5872 20.6926 58.3187 21.1693C58.0442 21.6423 57.5604 21.8674 57.2399 21.6822L54.1506 19.5037C53.9793 19.3568 53.9669 19.0292 54.1322 18.7384" fill="#050038"/>
<path d="M50.0696 18.7353C50.235 19.0297 50.2254 19.3566 50.0469 19.5042L46.9583 21.6791C46.637 21.868 46.1562 21.6422 45.881 21.1692C45.6065 20.6931 45.6621 20.1588 45.9769 19.9736L49.3962 18.3736C49.6151 18.2895 49.9012 18.4445 50.0696 18.7353Z" fill="#050038"/>
<path d="M59.2226 21.3505H59.2651C59.3229 21.3505 59.3463 21.3689 59.3529 21.4154C59.3654 21.4671 59.3719 21.5018 59.3844 21.5165H59.4942C59.4846 21.5054 59.4722 21.4774 59.4656 21.4125C59.4532 21.3564 59.4246 21.3246 59.3844 21.3135V21.3032C59.44 21.2907 59.4722 21.253 59.4722 21.2066C59.4722 21.1645 59.4532 21.1342 59.4341 21.1151C59.3976 21.0973 59.3624 21.0833 59.2849 21.0833C59.2161 21.0833 59.1655 21.0892 59.1253 21.0988V21.5165H59.2226V21.3505ZM59.2255 21.1601L59.2753 21.1534C59.3339 21.1534 59.3654 21.1807 59.3654 21.2191C59.3654 21.2619 59.3229 21.2819 59.2688 21.2819H59.2255V21.1601ZM59.2878 20.8767C59.0477 20.8767 58.8574 21.0656 58.8574 21.2973C58.8574 21.535 59.0477 21.7239 59.2878 21.7239C59.5308 21.7239 59.7152 21.535 59.7152 21.2973C59.7152 21.0656 59.5308 20.8767 59.2878 20.8767ZM59.2878 20.9615C59.4722 20.9615 59.6091 21.1121 59.6091 21.2973C59.6091 21.484 59.4722 21.639 59.2878 21.6361C59.1034 21.6361 58.9635 21.484 58.9635 21.2973C58.9635 21.1121 59.1034 20.9615 59.2849 20.9615" fill="#050038"/>
</svg>
