<svg width="288" height="62" viewBox="0 0 288 62" fill="none" xmlns="http://www.w3.org/2000/svg">
<path d="M13.339 41.3823C19.8423 41.3823 22.379 37.3927 22.379 30.5669C22.379 23.7424 19.4124 18.984 13.5295 18.984H6.93627V41.3823H13.339ZM0 13.0249H14.3908C23.5254 13.0249 29.4083 20.4266 29.4083 30.5669C29.4083 36.1416 27.5424 41.0455 23.9553 44.0732C21.4201 46.1867 18.1196 47.389 13.8162 47.389H0V13.0249ZM49.2186 35.0863C49.2186 30.2789 46.9715 27.0106 43.0018 27.0106C38.9834 27.0106 36.782 30.2789 36.782 35.0863C36.782 39.8922 38.9834 43.1114 43.0018 43.1114C46.9715 43.1114 49.2186 39.8922 49.2186 35.0863ZM30.1827 35.0863C30.1827 27.732 35.3963 22.0608 43.0018 22.0608C50.6058 22.0608 55.8194 27.732 55.8194 35.0863C55.8194 42.4376 50.6058 48.1103 43.0018 48.1103C35.3948 48.1103 30.1812 42.4391 30.1812 35.0863M56.8942 35.0863C56.8942 27.732 61.6779 22.0608 69.1386 22.0608C75.5017 22.0608 79.4226 25.7625 80.2839 31.0967H73.9223C73.4924 28.9342 71.8186 27.2986 69.4267 27.2986C65.5043 27.2986 63.4966 30.3279 63.4966 35.0863C63.4966 39.7482 65.361 42.8725 69.3307 42.8725C71.9618 42.8725 73.8278 41.4789 74.2577 38.6915H80.5233C80.0933 43.9293 76.0261 48.1103 69.474 48.1103C61.7267 48.1103 56.8942 42.4391 56.8942 35.0863ZM97.4599 47.3904V44.5066H97.3166C95.6427 46.7656 93.7296 48.0628 90.2858 48.0628C84.8329 48.0628 81.7717 44.5557 81.7717 39.1709V22.7332H88.2278V38.0651C88.2278 40.949 89.5206 42.5356 92.2935 42.5356C95.3546 42.5356 97.2206 40.2291 97.2206 36.9609V22.7332H103.725V47.3904H97.4599ZM135.418 47.3904H141.92V22.7332H135.418V47.3904ZM135.418 19.2872H141.92V13.1765H135.418V19.2872ZM161.79 33.979C161.79 30.3754 159.877 27.3001 155.955 27.3001C152.654 27.3001 150.454 29.8945 150.454 34.028C150.454 38.2091 152.654 40.6611 156.003 40.6611C160.117 40.6611 161.79 37.6332 161.79 33.9806M144.619 48.1103H151.073C151.601 49.648 152.987 50.8502 156 50.8502C159.684 50.8502 161.454 49.0721 161.454 45.7074V43.015H161.31C159.874 44.6491 158.01 45.8988 154.9 45.8988C149.448 45.8988 144.092 41.5738 144.092 34.1245C144.092 26.7702 148.491 22.0608 154.709 22.0608C157.771 22.0608 160.018 23.2615 161.501 25.3291H161.597V22.7332H167.862V45.5144C167.862 48.9756 166.761 51.3295 164.945 53.0127C162.887 54.9347 159.731 55.8 156.097 55.8C149.4 55.8 145.287 52.9162 144.617 48.1103M177.015 26.0979H177.158C178.833 23.4545 181.081 22.0608 184.429 22.0608C189.499 22.0608 192.894 25.9049 192.894 31.2881V47.389H186.389V32.2499C186.389 29.6066 184.858 27.732 182.132 27.732C179.262 27.732 177.158 30.0384 177.158 33.4031V47.389H170.653V22.7332H177.015V26.0979ZM120.594 26.6738C115.523 25.571 113.132 24.7532 113.132 21.9644C113.132 19.5139 115.57 17.9272 119.302 17.9272C122.707 17.9272 125.309 19.5323 125.843 22.7332H132.513C131.835 16.0603 126.906 12.4 119.349 12.4C111.746 12.4 106.244 15.9087 106.244 22.6856C106.244 29.847 111.84 31.4811 117.963 32.8748C123.176 34.0771 126.429 34.7494 126.429 38.1126C126.429 41.2859 123.32 42.5356 119.781 42.5356C114.903 42.5356 112.559 40.9014 112.079 36.7679H105.288C105.527 44.0257 110.788 48.1578 120.067 48.1578C127.768 48.1578 133.364 44.2662 133.364 37.2963C133.364 29.8945 127.624 28.2129 120.594 26.6738Z" fill="#050038"/>
</svg>
