<svg width="288" height="62" viewBox="0 0 288 62" fill="none" xmlns="http://www.w3.org/2000/svg">
<g clip-path="url(#clip0_2_804)">
<path d="M288 0H0V62H288V0Z" fill="white"/>
<path d="M4.20348 17.0742V20.8341H0V25.737H4.20348V45.4463C4.20348 46.9418 5.72627 48.1398 7.64106 48.1398C9.55584 48.1398 11.1148 46.9509 11.1148 45.4555V25.746H16.7024V20.8433H11.1148V17.0742C11.1148 12.539 14.6127 11.7025 19.4011 12.7842V7.88134C12.6587 6.35226 4.20348 7.06317 4.20348 17.0742ZM25.7335 25.746H25.5888V20.8433H19.9952V45.4616C19.9952 46.9571 21.5029 48.1552 23.4328 48.1552C25.3626 48.1552 26.8975 46.9571 26.8975 45.4616V33.0667C26.8975 27.22 30.6457 25.7339 35.1838 25.7339V20.2181C31.0798 20.1966 27.2352 21.5725 25.7335 25.746ZM74.0405 20.2304C67.3764 20.2304 61.9788 23.5858 61.9788 30.1801C61.9788 33.6918 63.5137 36.2842 65.9592 37.942C65.7783 38.0614 65.6033 38.184 65.4314 38.3127C62.401 40.5895 62.0753 44.5148 64.8525 46.6568C63.4926 47.8824 61.5657 50.0765 61.5657 53.1347C61.5657 57.9884 66.0285 61.1232 74.0374 61.1232C82.0464 61.1232 88.1616 57.3082 88.1616 51.434C88.1616 45.5597 84.1451 43.2524 76.8176 43.2524H72.0261C68.67 43.2524 68.9565 40.896 70.0631 39.8816C70.1204 39.8296 70.1808 39.7805 70.2471 39.7284C71.4943 39.9948 72.7661 40.1243 74.0405 40.1145C80.7076 40.1145 86.1021 36.7438 86.1021 30.1709C86.1171 28.8099 85.8533 27.4606 85.3271 26.2088C86.3478 25.9251 87.3992 25.7718 88.4571 25.7522V20.8494C85.493 20.8494 83.5812 21.0516 81.5549 22.0536C79.5014 20.8249 76.8871 20.215 74.0405 20.215V20.2304ZM70.3767 48.1644H76.8117C79.4531 48.1644 81.2533 48.9979 81.2533 51.434C81.2533 54.7067 78.4912 56.2143 74.0163 56.2143C67.1472 56.1989 67.5573 50.4626 70.3767 48.149V48.1644ZM74.0405 35.2117C71.1909 35.2117 68.8751 34.0871 68.8751 30.1771C68.8751 26.2671 71.1909 25.1425 74.0405 25.1425C76.89 25.1425 79.2088 26.264 79.2088 30.1771C79.2088 34.0901 76.896 35.2117 74.0405 35.2117ZM47.725 20.215C40.2346 20.215 35.6632 24.9249 35.6632 34.1821C35.6632 43.4393 40.2407 48.149 47.725 48.149C55.2092 48.149 59.7866 43.4393 59.7866 34.1821C59.7866 24.9249 55.2182 20.215 47.725 20.215ZM47.725 43.237C44.8724 43.237 42.5595 42.0603 42.5595 34.1821C42.5595 26.3038 44.8875 25.1333 47.725 25.1333C50.5624 25.1333 52.8904 26.3068 52.8904 34.1821C52.8904 42.0573 50.5775 43.237 47.725 43.237Z" fill="#050038"/>
</g>
<defs>
<clipPath id="clip0_2_804">
<rect width="288" height="62" fill="white"/>
</clipPath>
</defs>
</svg>
