<svg width="288" height="62" viewBox="0 0 288 62" fill="none" xmlns="http://www.w3.org/2000/svg">
<g clip-path="url(#clip0_2_782)">
<path d="M288 0H0V62H288V0Z" fill="white"/>
<path d="M0.43129 19.6961C1.27492 18.0375 3.3969 17.2158 5.14435 17.7985C6.23734 18.1459 7.12396 19.029 7.54148 20.0943C9.87459 25.6365 12.2182 31.1748 14.5504 36.7168C14.6144 36.5987 14.6756 36.4788 14.729 36.355C16.5214 32.0866 18.3281 27.8229 20.129 23.5574C20.9918 21.5524 22.3867 19.697 24.3376 18.6613C25.4221 18.0796 26.6354 17.761 27.8564 17.6602C31.016 17.3137 34.229 18.8264 36.202 21.2874C38.0354 19.7085 40.1516 18.3657 42.5316 17.8244C43.8185 17.5259 45.1551 17.5834 46.4565 17.7437C48.0835 17.9559 49.6914 18.5193 50.9995 19.5329C51.6587 20.031 52.2261 20.6415 52.7392 21.2885C54.9987 19.0943 58.0504 17.6449 61.2214 17.6123C63.2421 17.5691 65.2848 18.1085 66.9854 19.2161C68.9431 20.4678 70.3914 22.495 70.9178 24.7688C71.1758 25.8179 71.1873 26.9053 71.1844 27.9794C71.1844 32.5866 71.1835 37.1938 71.1854 41.801C71.1729 42.4144 71.1501 43.0364 70.9819 43.6306C70.6876 44.768 69.9358 45.8237 68.8418 46.2959C67.3016 46.9717 65.2714 46.7184 64.1516 45.3861C63.2497 44.362 63.0223 42.9346 63.0615 41.6101C63.0635 37.3234 63.0615 33.0368 63.0624 28.7502C63.0615 27.6378 62.6545 26.5013 61.8385 25.7305C61.0924 25.0135 60.0519 24.6594 59.0287 24.6516C57.8918 24.6229 56.7156 24.9848 55.8787 25.7795C55.0742 26.5329 54.6424 27.6454 54.6501 28.7434C54.6501 33.1597 54.651 37.5749 54.6491 41.9911C54.6434 43.1353 54.3807 44.3255 53.6536 45.2335C53.0793 45.9774 52.2051 46.464 51.2813 46.5974C50.2503 46.748 49.1354 46.5964 48.2688 45.9869C47.4882 45.4504 46.9714 44.5923 46.7287 43.6852C46.4803 42.8243 46.5214 41.9192 46.5204 41.0332C46.5204 36.9376 46.5195 32.8429 46.5214 28.7473C46.5118 27.7289 46.1784 26.6913 45.4914 25.9293C44.7214 25.0596 43.5424 24.6392 42.4007 24.6507C41.2514 24.642 40.0638 25.0318 39.2498 25.8697C38.4701 26.6424 38.0927 27.7558 38.0947 28.8433C38.0947 33.2911 38.0937 37.74 38.0947 42.1879C38.087 43.3109 37.7679 44.4685 37.0332 45.3352C36.4943 45.9821 35.7233 46.4188 34.8997 46.5696C33.717 46.7894 32.3966 46.5868 31.4631 45.7816C30.436 44.9052 29.9947 43.5115 29.9908 42.1908C29.987 36.7793 29.9908 31.3686 29.9889 25.958C29.9994 25.5347 29.794 25.1077 29.4309 24.8839C28.8759 24.5097 28.0016 24.6901 27.736 25.336C25.21 30.8647 22.68 36.3914 20.1577 41.9221C19.6084 43.0729 19.0284 44.2381 18.1571 45.1826C17.5226 45.8718 16.6772 46.367 15.7551 46.5389C14.3067 46.8172 12.6893 46.6175 11.5113 45.6673C10.2673 44.6623 9.54976 43.1823 8.89434 41.7579C6.03957 35.5113 3.17524 29.2694 0.325239 23.0219C-0.131449 21.9709 -0.117118 20.7106 0.43129 19.6961Z" fill="#050038"/>
<path d="M166.803 18.5645C168.682 18.051 170.674 17.9953 172.586 18.3505C174.708 18.7431 176.721 19.7423 178.294 21.2291C181.246 23.9819 182.634 28.1226 182.571 32.1078C182.521 33.035 181.684 33.85 180.753 33.8317C174.27 33.8337 167.786 33.8308 161.302 33.8326C161.45 35.7197 162.061 37.5876 163.132 39.1511C164.192 40.7013 165.748 41.903 167.517 42.5163C169.344 43.1699 171.353 43.2064 173.236 42.7899C175.03 42.3896 176.69 41.4759 178.067 40.2626C178.384 39.9919 178.675 39.6656 179.079 39.5255C179.78 39.2567 180.624 39.5447 181.056 40.1522C181.528 40.7703 181.487 41.7235 180.951 42.2908C179.629 43.6383 178.081 44.7882 176.338 45.5254C174.567 46.2827 172.632 46.5908 170.714 46.6004C168.696 46.6071 166.666 46.1867 164.844 45.3056C161.683 43.8198 159.224 40.9748 158.101 37.6672C157.282 35.3415 157.083 32.8248 157.349 30.382C157.733 26.9976 159.242 23.6968 161.762 21.3835C163.189 20.0609 164.928 19.079 166.803 18.5645ZM166.811 22.2321C165.171 22.9587 163.818 24.2554 162.903 25.7931C161.981 27.3076 161.477 29.0517 161.284 30.8082C161.751 30.8408 162.22 30.8178 162.689 30.8245C167.977 30.8265 173.266 30.8197 178.553 30.8274C178.562 30.3667 178.467 29.9136 178.396 29.4606C178.066 27.6341 177.372 25.8401 176.192 24.3946C175.143 23.0921 173.654 22.1563 172.028 21.781C170.299 21.3884 168.437 21.4988 166.811 22.2321Z" fill="#050038"/>
<path d="M74.4032 18.2685C75.0719 18.0823 75.8554 18.2264 76.354 18.7302C76.6445 19.0048 76.8508 19.358 76.9847 19.7333C79.2968 26.4503 81.6021 33.17 83.9047 39.8908C84.2353 39.0912 84.4751 38.2553 84.7761 37.4433C86.8063 31.5412 88.8413 25.6421 90.8821 19.7438C91.1085 19.0594 91.6197 18.4126 92.3496 18.2523C93.0652 18.1026 93.8897 18.1832 94.4572 18.6852C94.8165 18.9913 95.0391 19.4213 95.1929 19.8619C97.3674 26.1978 99.5333 32.5375 101.704 38.8753C101.832 39.2122 101.915 39.5674 102.077 39.8918C104.417 33.1192 106.768 26.3494 109.12 19.5816C109.299 19.0988 109.615 18.6449 110.081 18.4068C110.777 18.0498 111.675 18.1418 112.287 18.6295C112.857 19.0634 113.138 19.8427 112.961 20.5405C112.83 21.054 112.633 21.5465 112.458 22.0445C109.925 29.1263 107.375 36.2021 104.839 43.2828C104.638 43.8213 104.466 44.3714 104.242 44.9012C103.938 45.573 103.364 46.1681 102.628 46.3304C101.92 46.4695 101.116 46.361 100.571 45.8514C99.9748 45.3283 99.7942 44.5258 99.5381 43.8089C97.3846 37.5603 95.2197 31.3156 93.0613 25.069C93.0346 25.0153 92.9802 24.9087 92.9534 24.855C92.0993 27.1998 91.3082 29.5697 90.4751 31.9232C89.0544 35.9967 87.6356 40.0712 86.2197 44.1476C86.0238 44.712 85.848 45.3177 85.4066 45.7478C84.8229 46.3803 83.855 46.5195 83.061 46.2699C82.2872 46.0204 81.754 45.311 81.4952 44.5643C78.7512 36.8664 75.99 29.1752 73.2481 21.4763C73.0961 21.0329 72.9012 20.5856 72.9251 20.1077C72.9204 19.2496 73.592 18.4778 74.4032 18.2685Z" fill="#050038"/>
<path d="M122.936 18.2866C125.111 18.134 127.328 18.1206 129.46 18.636C131.069 19.0209 132.623 19.7331 133.867 20.8427C135.351 22.126 136.297 23.9488 136.719 25.853C137.195 27.839 137.042 29.892 137.067 31.9144C137.067 36.0754 137.065 40.2362 137.069 44.398C137.083 45.0171 136.808 45.6449 136.316 46.024C135.728 46.4828 134.886 46.5241 134.218 46.2265C133.59 45.9463 133.176 45.2744 133.169 44.5891C133.16 43.7013 133.184 42.8133 133.159 41.9255C132.171 43.1349 131.018 44.2234 129.656 44.9942C127.8 46.072 125.649 46.5951 123.512 46.6009C121.351 46.6537 119.16 46.1632 117.269 45.0978C115.733 44.2282 114.419 42.9046 113.721 41.2632C112.998 39.6056 112.931 37.7176 113.29 35.9611C113.667 34.147 114.744 32.5038 116.234 31.4134C118.114 30.0207 120.447 29.3996 122.743 29.1769C126.243 28.8909 129.792 29.2682 133.164 30.252C133.224 28.4638 133.069 26.571 132.102 25.018C131.321 23.7136 130.015 22.7893 128.585 22.3295C127.413 21.9456 126.175 21.7968 124.946 21.8207C123.273 21.7949 121.579 21.9715 119.994 22.5311C119.481 22.7 118.995 22.9409 118.49 23.1271C117.812 23.3748 117.017 23.13 116.556 22.5848C115.857 21.8102 116.028 20.3762 116.988 19.8944C118.847 18.9922 120.876 18.4403 122.936 18.2866ZM121.718 32.5306C120.371 32.9012 119.042 33.5807 118.187 34.7239C117.315 35.8565 117.055 37.374 117.277 38.7667C117.482 40.0605 118.257 41.2306 119.324 41.9754C120.994 43.1743 123.137 43.5016 125.145 43.3211C127.214 43.1378 129.272 42.393 130.85 41.0118C132.232 39.8187 133.147 38.0651 133.212 36.2241C133.223 35.246 133.215 34.268 133.214 33.2908C131.508 32.7745 129.751 32.4337 127.98 32.2504C125.896 32.0575 123.758 31.9787 121.718 32.5306Z" fill="#050038"/>
<path d="M142.016 20.2032C142 19.1473 142.906 18.1673 143.963 18.1453C145.056 18.0704 146.078 19.0063 146.101 20.1081C146.119 21.6832 146.101 23.2602 146.108 24.8364C146.446 24.2537 146.725 23.6366 147.12 23.0874C148.789 20.6524 151.403 18.8306 154.317 18.3036C155.064 18.1952 155.898 18.0531 156.584 18.4659C157.79 19.1483 157.881 21.1188 156.768 21.9328C156.289 22.3273 155.656 22.3609 155.073 22.452C152.995 22.8177 150.993 23.7709 149.504 25.2894C148.265 26.5103 147.39 28.0729 146.855 29.7248C146.279 31.511 146.073 33.4019 146.108 35.2746C146.108 38.2501 146.107 41.2255 146.108 44.201C146.115 44.7683 145.908 45.3451 145.503 45.7464C145.009 46.2685 144.219 46.4643 143.534 46.2704C142.862 46.1083 142.305 45.5631 142.11 44.9007C141.979 44.5206 142.021 44.1146 142.017 43.7211C142.017 35.8821 142.018 28.0431 142.016 20.2032Z" fill="#050038"/>
</g>
<defs>
<clipPath id="clip0_2_782">
<rect width="288" height="62" fill="white"/>
</clipPath>
</defs>
</svg>
