<svg width="134" height="45" viewBox="0 0 134 45" fill="none" xmlns="http://www.w3.org/2000/svg">
<g clip-path="url(#clip0_2_872)">
<path d="M126.18 0.46875H7.4445C3.59001 0.46875 0.465332 3.61675 0.465332 7.5V37.5C0.465332 41.3833 3.59001 44.5312 7.4445 44.5312H126.18C130.034 44.5312 133.159 41.3833 133.159 37.5V7.5C133.159 3.61675 130.034 0.46875 126.18 0.46875Z" fill="#050038"/>
<path d="M27.6593 22.8384C27.6713 21.8994 27.9189 20.9786 28.379 20.162C28.8391 19.3452 29.4968 18.6591 30.2908 18.1673C29.7864 17.4415 29.1209 16.8442 28.3473 16.4228C27.5736 16.0015 26.713 15.7676 25.834 15.7399C23.9589 15.5416 22.141 16.8703 21.1854 16.8703C20.2114 16.8703 18.7402 15.7596 17.156 15.7924C16.1312 15.8258 15.1325 16.126 14.2573 16.6638C13.3819 17.2016 12.6598 17.9587 12.1613 18.8613C10.0017 22.6282 11.6125 28.1644 13.6813 31.2093C14.7163 32.7003 15.9259 34.3659 17.5087 34.3068C19.0576 34.242 19.6362 33.3117 21.5057 33.3117C23.358 33.3117 23.9007 34.3068 25.5157 34.2692C27.1777 34.242 28.2248 32.7716 29.2236 31.2664C29.9673 30.204 30.5395 29.0299 30.9191 27.7873C29.9535 27.376 29.1295 26.6873 28.5499 25.8071C27.9702 24.9271 27.6604 23.8946 27.6593 22.8384Z" fill="white"/>
<path d="M24.6082 13.7372C25.5144 12.6412 25.9609 11.2325 25.8527 9.8103C24.4683 9.95674 23.1894 10.6234 22.2709 11.6773C21.8219 12.1922 21.478 12.7912 21.2589 13.44C21.0397 14.0889 20.9496 14.7749 20.9938 15.4588C21.6863 15.4661 22.3713 15.3148 22.9974 15.0166C23.6235 14.7184 24.1743 14.281 24.6082 13.7372Z" fill="white"/>
<path d="M47.239 30.5322H41.9534L40.684 34.3081H38.4453L43.4517 20.3379H45.7777L50.7842 34.3081H48.5072L47.239 30.5322ZM42.5008 28.7897H46.6905L44.6251 22.6616H44.5673L42.5008 28.7897Z" fill="white"/>
<path d="M61.5963 29.2159C61.5963 32.3811 59.9147 34.4146 57.3772 34.4146C56.7343 34.4484 56.095 34.2993 55.5325 33.9842C54.9699 33.669 54.5069 33.2006 54.1962 32.6326H54.1482V37.6775H52.073V24.1226H54.0817V25.8167H54.1198C54.4448 25.2515 54.9157 24.7855 55.4826 24.4684C56.0494 24.1513 56.691 23.995 57.339 24.016C59.9048 24.016 61.5963 26.0595 61.5963 29.2159ZM59.4633 29.2159C59.4633 27.1537 58.4055 25.798 56.7916 25.798C55.206 25.798 54.1395 27.1823 54.1395 29.2159C54.1395 31.2682 55.206 32.6425 56.7916 32.6425C58.4055 32.6425 59.4633 31.2967 59.4633 29.2159Z" fill="white"/>
<path d="M72.7247 29.2159C72.7247 32.3811 71.0431 34.4146 68.5056 34.4146C67.8628 34.4484 67.2235 34.2993 66.6609 33.9841C66.0983 33.669 65.6352 33.2006 65.3246 32.6326H65.2766V37.6775H63.2014V24.1226H65.21V25.8167H65.2483C65.5731 25.2515 66.0441 24.7854 66.6109 24.4684C67.1778 24.1513 67.8193 23.995 68.4673 24.016C71.0333 24.016 72.7247 26.0595 72.7247 29.2159ZM70.5917 29.2159C70.5917 27.1537 69.5338 25.798 67.92 25.798C66.3344 25.798 65.2679 27.1823 65.2679 29.2159C65.2679 31.2682 66.3344 32.6425 67.92 32.6425C69.5339 32.6425 70.5917 31.2967 70.5917 29.2159Z" fill="white"/>
<path d="M80.0784 30.4157C80.2322 31.801 81.568 32.7107 83.3935 32.7107C85.1426 32.7107 86.401 31.801 86.401 30.5519C86.401 29.4675 85.6421 28.8183 83.845 28.3733L82.0478 27.9371C79.5015 27.3175 78.3194 26.1178 78.3194 24.171C78.3194 21.7606 80.4044 20.105 83.3651 20.105C86.2952 20.105 88.3039 21.7606 88.3716 24.171H86.2767C86.1514 22.7769 85.0074 21.9354 83.3357 21.9354C81.664 21.9354 80.52 22.7868 80.52 24.0261C80.52 25.0137 81.2507 25.5949 83.038 26.0397L84.5657 26.4177C87.4108 27.0955 88.593 28.247 88.593 30.2904C88.593 32.904 86.5265 34.541 83.2397 34.541C80.1645 34.541 78.0882 32.9424 77.9541 30.4156L80.0784 30.4157Z" fill="white"/>
<path d="M93.0722 21.7124V24.1228H94.9947V25.7784H93.0722V31.3935C93.0722 32.2658 93.4565 32.6723 94.3015 32.6723C94.5304 32.6683 94.7584 32.6522 94.9845 32.624V34.2697C94.6048 34.3413 94.2187 34.3736 93.8315 34.3664C91.7851 34.3664 90.9867 33.5918 90.9867 31.6165V25.7784H89.5168V24.1228H90.9867V21.7124H93.0722Z" fill="white"/>
<path d="M96.1069 29.2161C96.1069 26.0114 97.9811 23.9976 100.902 23.9976C103.833 23.9976 105.698 26.0113 105.698 29.2161C105.698 32.4295 103.844 34.4346 100.902 34.4346C97.9625 34.4346 96.1069 32.4295 96.1069 29.2161ZM103.584 29.2161C103.584 27.0177 102.584 25.7202 100.902 25.7202C99.2206 25.7202 98.2221 27.0276 98.2221 29.2161C98.2221 31.4232 99.2206 32.7108 100.902 32.7108C102.584 32.7108 103.584 31.4232 103.584 29.2161Z" fill="white"/>
<path d="M107.408 24.123H109.388V25.8565H109.435C109.569 25.3151 109.885 24.8366 110.328 24.5016C110.77 24.1664 111.314 23.9951 111.868 24.0164C112.107 24.0156 112.345 24.0417 112.579 24.0944V26.05C112.276 25.957 111.962 25.9143 111.646 25.9236C111.345 25.9113 111.044 25.9648 110.765 26.0806C110.486 26.1963 110.235 26.3715 110.03 26.5942C109.824 26.8168 109.669 27.0816 109.575 27.3703C109.481 27.6591 109.449 27.965 109.484 28.267V34.3084H107.408V24.123Z" fill="white"/>
<path d="M122.148 31.3166C121.868 33.1657 120.082 34.4346 117.794 34.4346C114.854 34.4346 113.028 32.4493 113.028 29.2644C113.028 26.0696 114.863 23.9976 117.707 23.9976C120.504 23.9976 122.263 25.9333 122.263 29.0216V29.7379H115.123V29.8642C115.09 30.2391 115.137 30.6167 115.26 30.972C115.382 31.3274 115.579 31.6522 115.836 31.9251C116.093 32.198 116.406 32.4126 116.751 32.5547C117.097 32.6967 117.47 32.7631 117.843 32.7492C118.333 32.7955 118.825 32.6812 119.246 32.423C119.667 32.1649 119.993 31.7768 120.178 31.3166H122.148ZM115.133 28.2767H120.187C120.205 27.9397 120.155 27.6024 120.038 27.286C119.922 26.9697 119.741 26.6811 119.508 26.4383C119.275 26.1956 118.995 26.004 118.685 25.8755C118.375 25.747 118.042 25.6844 117.707 25.6916C117.369 25.6897 117.034 25.755 116.721 25.8841C116.409 26.0132 116.125 26.2034 115.885 26.4438C115.646 26.6841 115.456 26.9698 115.327 27.2844C115.198 27.599 115.132 27.9362 115.133 28.2767Z" fill="white"/>
<path d="M42.2408 9.8223C42.6758 9.79089 43.1123 9.85708 43.519 10.0162C43.9255 10.1753 44.292 10.4233 44.5919 10.7425C44.8918 11.0615 45.1178 11.4436 45.2534 11.8614C45.3888 12.279 45.4307 12.7218 45.3759 13.1577C45.3759 15.3023 44.2255 16.535 42.2408 16.535H39.834V9.8223H42.2408ZM40.8689 15.5857H42.1251C42.436 15.6044 42.7472 15.553 43.0358 15.4354C43.3245 15.3176 43.5836 15.1366 43.7941 14.9053C44.0045 14.674 44.1612 14.3984 44.2525 14.0985C44.344 13.7985 44.3678 13.4818 44.3224 13.1714C44.3646 12.8622 44.3382 12.5475 44.2455 12.2498C44.1527 11.952 43.9956 11.6786 43.7856 11.4492C43.5757 11.2198 43.3178 11.04 43.0307 10.9227C42.7436 10.8055 42.4344 10.7536 42.1251 10.771H40.8689V15.5857Z" fill="white"/>
<path d="M46.5444 14.0001C46.5128 13.6671 46.5507 13.3312 46.6554 13.0139C46.7602 12.6966 46.9297 12.4048 47.1529 12.1574C47.3761 11.9099 47.6483 11.7122 47.9519 11.5768C48.2554 11.4415 48.5837 11.3716 48.9157 11.3716C49.2477 11.3716 49.576 11.4415 49.8795 11.5768C50.1831 11.7122 50.4552 11.9099 50.6785 12.1574C50.9017 12.4048 51.0712 12.6966 51.176 13.0139C51.2808 13.3312 51.3186 13.6671 51.287 14.0001C51.3192 14.3332 51.2819 14.6696 51.1773 14.9875C51.0728 15.3053 50.9034 15.5976 50.6801 15.8456C50.4568 16.0936 50.1845 16.2917 49.8806 16.4273C49.5767 16.5629 49.2481 16.6329 48.9157 16.6329C48.5834 16.6329 48.2547 16.5629 47.9509 16.4273C47.6469 16.2917 47.3746 16.0936 47.1512 15.8456C46.928 15.5976 46.7586 15.3053 46.654 14.9875C46.5495 14.6696 46.5122 14.3332 46.5444 14.0001ZM50.2663 14.0001C50.2663 12.902 49.7766 12.2598 48.9173 12.2598C48.0548 12.2598 47.5695 12.902 47.5695 14.0001C47.5695 15.107 48.0548 15.7441 48.9173 15.7441C49.7767 15.7441 50.2663 15.1026 50.2663 14.0001Z" fill="white"/>
<path d="M57.5915 16.535H56.5621L55.5229 12.8041H55.4444L54.4095 16.535H53.3899L52.0039 11.4692H53.0104L53.9112 15.3347H53.9853L55.0191 11.4692H55.971L57.0049 15.3347H57.0833L57.9797 11.4692H58.9721L57.5915 16.535Z" fill="white"/>
<path d="M60.1372 11.4692H61.0925V12.274H61.1667C61.2924 11.985 61.5046 11.7426 61.7736 11.5809C62.0425 11.4191 62.3549 11.3459 62.6671 11.3714C62.9118 11.3529 63.1575 11.3901 63.386 11.4802C63.6144 11.5703 63.8198 11.711 63.987 11.8919C64.1541 12.0729 64.2787 12.2895 64.3515 12.5255C64.4244 12.7616 64.4434 13.011 64.4075 13.2555V16.5349H63.4152V13.5066C63.4152 12.6926 63.0641 12.2877 62.3302 12.2877C62.164 12.2799 61.9982 12.3084 61.8441 12.3712C61.6899 12.434 61.5511 12.5296 61.437 12.6516C61.323 12.7735 61.2365 12.9189 61.1834 13.0776C61.1303 13.2364 61.112 13.4049 61.1296 13.5715V16.535H60.1372V11.4692Z" fill="white"/>
<path d="M65.9895 9.4917H66.9818V16.535H65.9895V9.4917Z" fill="white"/>
<path d="M68.3615 14.0001C68.33 13.6672 68.3678 13.3313 68.4726 13.014C68.5774 12.6966 68.7469 12.4049 68.9702 12.1574C69.1935 11.9099 69.4656 11.7122 69.7692 11.5768C70.0728 11.4415 70.4011 11.3716 70.7331 11.3716C71.0651 11.3716 71.3934 11.4415 71.6969 11.5768C72.0006 11.7122 72.2727 11.9099 72.496 12.1574C72.7192 12.4049 72.8888 12.6966 72.9936 13.014C73.0984 13.3313 73.1362 13.6672 73.1046 14.0001C73.1368 14.3334 73.0994 14.6697 72.9949 14.9876C72.8904 15.3054 72.7209 15.5977 72.4976 15.8457C72.2742 16.0937 72.0019 16.2918 71.698 16.4273C71.3941 16.563 71.0655 16.633 70.7331 16.633C70.4008 16.633 70.0721 16.563 69.7682 16.4273C69.4642 16.2918 69.1919 16.0937 68.9685 15.8457C68.7452 15.5977 68.5758 15.3054 68.4713 14.9876C68.3668 14.6697 68.3293 14.3334 68.3615 14.0001ZM72.0834 14.0001C72.0834 12.9021 71.5937 12.2599 70.7345 12.2599C69.8718 12.2599 69.3866 12.9021 69.3866 14.0001C69.3866 15.1071 69.8719 15.7442 70.7345 15.7442C71.5937 15.7442 72.0834 15.1026 72.0834 14.0001Z" fill="white"/>
<path d="M74.1482 15.1026C74.1482 14.1906 74.8222 13.665 76.0184 13.5903L77.3805 13.5112V13.0739C77.3805 12.5389 77.0293 12.2368 76.351 12.2368C75.797 12.2368 75.4132 12.4416 75.3031 12.7999H74.3423C74.4437 11.9297 75.2562 11.3716 76.3968 11.3716C77.6574 11.3716 78.3684 12.0038 78.3684 13.0739V16.5351H77.4131V15.8233H77.3346C77.1753 16.0786 76.9515 16.2868 76.6862 16.4266C76.4208 16.5663 76.1234 16.6326 75.8243 16.6187C75.6133 16.6408 75.3999 16.6181 75.198 16.552C74.9962 16.486 74.8103 16.3781 74.6524 16.2352C74.4944 16.0924 74.368 15.9178 74.2812 15.7227C74.1943 15.5276 74.149 15.3164 74.1482 15.1026ZM77.3805 14.6697V14.2461L76.1525 14.3253C75.4601 14.372 75.146 14.6092 75.146 15.0559C75.146 15.5118 75.5386 15.7771 76.0784 15.7771C76.2366 15.7932 76.3964 15.7772 76.5483 15.7298C76.7001 15.6825 76.841 15.6048 76.9625 15.5015C77.0839 15.3981 77.1836 15.2713 77.2553 15.1283C77.3272 14.9855 77.3697 14.8295 77.3805 14.6697Z" fill="white"/>
<path d="M79.6733 13.9999C79.6733 12.3993 80.4902 11.3852 81.7606 11.3852C82.0748 11.3706 82.3867 11.4465 82.6598 11.6038C82.9328 11.7612 83.1558 11.9936 83.3025 12.2739H83.3767V9.4917H84.369V16.535H83.4182V15.7347H83.3396C83.1815 16.013 82.9508 16.2426 82.6724 16.3984C82.3941 16.5542 82.0787 16.6303 81.7606 16.6185C80.4814 16.6186 79.6733 15.6045 79.6733 13.9999ZM80.6984 13.9999C80.6984 15.0744 81.2012 15.7209 82.042 15.7209C82.8784 15.7209 83.3953 15.065 83.3953 14.0044C83.3953 12.9485 82.873 12.2834 82.042 12.2834C81.2066 12.2834 80.6984 12.9343 80.6984 13.9999Z" fill="white"/>
<path d="M88.4739 14.0001C88.4422 13.6671 88.4801 13.3312 88.5849 13.0139C88.6897 12.6966 88.8591 12.4048 89.0824 12.1574C89.3056 11.9099 89.5778 11.7122 89.8813 11.5768C90.1849 11.4415 90.5132 11.3716 90.8451 11.3716C91.1771 11.3716 91.5053 11.4415 91.809 11.5768C92.1125 11.7122 92.3846 11.9099 92.6079 12.1574C92.8312 12.4048 93.0006 12.6966 93.1057 13.0139C93.2099 13.3312 93.2481 13.6671 93.2164 14.0001C93.249 14.3332 93.2109 14.6696 93.1066 14.9875C93.0022 15.3053 92.8329 15.5976 92.6095 15.8456C92.3862 16.0936 92.1139 16.2917 91.81 16.4273C91.5062 16.5629 91.1775 16.6329 90.8451 16.6329C90.5128 16.6329 90.1841 16.5629 89.8802 16.4273C89.5764 16.2917 89.304 16.0936 89.0807 15.8456C88.8573 15.5976 88.688 15.3053 88.5835 14.9875C88.479 14.6696 88.4417 14.3332 88.4739 14.0001ZM92.1957 14.0001C92.1957 12.902 91.7061 12.2598 90.8468 12.2598C89.9842 12.2598 89.499 12.902 89.499 14.0001C89.499 15.107 89.9842 15.7441 90.8468 15.7441C91.7061 15.7441 92.1957 15.1026 92.1957 14.0001Z" fill="white"/>
<path d="M94.5491 11.4692H95.5048V12.274H95.5792C95.7048 11.985 95.917 11.7426 96.1859 11.5809C96.4548 11.4191 96.7675 11.3459 97.0792 11.3714C97.324 11.3529 97.5697 11.3901 97.7986 11.4802C98.0266 11.5703 98.2322 11.711 98.3997 11.8919C98.5663 12.0729 98.691 12.2895 98.7636 12.5255C98.8371 12.7616 98.8557 13.011 98.8203 13.2555V16.5349H97.8274V13.5066C97.8274 12.6926 97.4766 12.2877 96.7424 12.2877C96.5767 12.2799 96.4102 12.3084 96.2566 12.3712C96.1022 12.434 95.9635 12.5296 95.8491 12.6516C95.7355 12.7735 95.649 12.9189 95.5959 13.0776C95.5429 13.2364 95.5243 13.4049 95.542 13.5715V16.535H94.5491V11.4692Z" fill="white"/>
<path d="M104.427 10.208V11.4924H105.517V12.3344H104.427V14.9393C104.427 15.4699 104.645 15.7023 105.138 15.7023C105.265 15.7019 105.391 15.6942 105.517 15.6793V16.5119C105.339 16.5441 105.158 16.5612 104.977 16.563C103.873 16.563 103.434 16.1719 103.434 15.1953V12.3344H102.636V11.4923H103.434V10.208H104.427Z" fill="white"/>
<path d="M106.873 9.4917H107.856V12.2833H107.934C108.066 11.9916 108.284 11.7479 108.559 11.5855C108.833 11.4231 109.151 11.3499 109.468 11.3759C109.711 11.3625 109.955 11.4034 110.18 11.4958C110.406 11.588 110.609 11.7294 110.774 11.9098C110.94 12.0902 111.064 12.3051 111.137 12.5393C111.211 12.7734 111.231 13.021 111.2 13.2644V16.535H110.206V13.511C110.206 12.7019 109.832 12.2921 109.131 12.2921C108.96 12.278 108.789 12.3017 108.628 12.3613C108.468 12.421 108.321 12.5153 108.201 12.6377C108.08 12.76 107.988 12.9074 107.93 13.0695C107.872 13.2317 107.85 13.4046 107.865 13.5764V16.535H106.873V9.4917Z" fill="white"/>
<path d="M116.984 15.1674C116.849 15.6304 116.557 16.0309 116.158 16.2988C115.76 16.5667 115.281 16.685 114.805 16.633C114.474 16.6418 114.145 16.5779 113.84 16.4457C113.536 16.3135 113.263 16.1162 113.043 15.8674C112.821 15.6185 112.658 15.3244 112.561 15.005C112.464 14.6857 112.437 14.349 112.483 14.0183C112.438 13.6865 112.465 13.3491 112.562 13.0289C112.659 12.7086 112.822 12.413 113.042 12.1621C113.262 11.9111 113.532 11.7107 113.836 11.5743C114.139 11.4379 114.469 11.3689 114.801 11.3717C116.199 11.3717 117.043 12.3347 117.043 13.9254V14.2743H113.493V14.3303C113.478 14.5162 113.501 14.7034 113.561 14.8797C113.622 15.056 113.719 15.2177 113.844 15.3544C113.971 15.4909 114.123 15.5995 114.294 15.6731C114.464 15.7467 114.647 15.7836 114.832 15.7816C115.07 15.8103 115.31 15.7672 115.523 15.6578C115.736 15.5485 115.912 15.3778 116.028 15.1674H116.984ZM113.493 13.5349H116.033C116.046 13.3649 116.023 13.1941 115.966 13.0336C115.909 12.873 115.819 12.7262 115.702 12.6026C115.586 12.479 115.445 12.3814 115.288 12.3159C115.133 12.2505 114.965 12.2187 114.795 12.2225C114.624 12.2204 114.454 12.2529 114.295 12.3181C114.135 12.3832 113.991 12.4799 113.869 12.6021C113.748 12.7245 113.652 12.87 113.587 13.0302C113.523 13.1904 113.491 13.362 113.493 13.5349Z" fill="white"/>
<path d="M126.18 0.46875H7.4445C3.59001 0.46875 0.465332 3.61675 0.465332 7.5V37.5C0.465332 41.3833 3.59001 44.5312 7.4445 44.5312H126.18C130.034 44.5312 133.159 41.3833 133.159 37.5V7.5C133.159 3.61675 130.034 0.46875 126.18 0.46875Z" stroke="#A6A6A6"/>
</g>
<defs>
<clipPath id="clip0_2_872">
<rect width="134" height="45" fill="white"/>
</clipPath>
</defs>
</svg>
