<svg width="152" height="45" viewBox="0 0 152 45" fill="none" xmlns="http://www.w3.org/2000/svg">
<g clip-path="url(#clip0_2_898)">
<path d="M144.165 0.46875H8.01755C4.15494 0.46875 1.02368 3.61675 1.02368 7.5V37.5C1.02368 41.3833 4.15494 44.5312 8.01755 44.5312H144.165C148.027 44.5312 151.159 41.3833 151.159 37.5V7.5C151.159 3.61675 148.027 0.46875 144.165 0.46875Z" fill="#050038"/>
<path d="M53.6182 11.5236C53.6182 12.4662 53.3406 13.2168 52.7845 13.7767C52.1529 14.4425 51.3298 14.7755 50.3179 14.7755C49.3488 14.7755 48.5249 14.438 47.8473 13.7622C47.1685 13.0867 46.8298 12.2492 46.8298 11.2498C46.8298 10.25 47.1685 9.41295 47.8473 8.73703C48.5249 8.06158 49.3488 7.72363 50.3179 7.72363C50.7987 7.72363 51.2591 7.81813 51.6962 8.00668C52.1332 8.19568 52.4839 8.44656 52.7462 8.76077L52.156 9.35443C51.7115 8.82051 51.0995 8.55377 50.3179 8.55377C49.6111 8.55377 49 8.80341 48.4842 9.30302C47.9683 9.80323 47.7106 10.4518 47.7106 11.2498C47.7106 12.0479 47.9683 12.6965 48.4842 13.1966C49 13.6963 49.6111 13.9459 50.3179 13.9459C51.0677 13.9459 51.6927 13.6949 52.1931 13.1923C52.518 12.8647 52.7059 12.4096 52.7561 11.825H50.3179V11.0143H53.5715C53.6029 11.1905 53.6182 11.3598 53.6182 11.5236Z" fill="white"/>
<path d="M53.6191 11.5238H53.5072C53.5062 12.4449 53.2387 13.1602 52.7062 13.6973L52.705 13.6983C52.0935 14.3411 51.3071 14.6619 50.3187 14.6632C49.3755 14.6619 48.586 14.3385 47.9268 13.6828C47.2691 13.0258 46.9438 12.2239 46.9426 11.25C46.9438 10.2757 47.2691 9.47418 47.9268 8.81767C48.586 8.16157 49.3755 7.83768 50.3187 7.83633C50.7852 7.83633 51.2293 7.92779 51.6529 8.11015C52.0768 8.29387 52.4118 8.53462 52.6613 8.83353L52.747 8.76097L52.6679 8.68143L52.0777 9.27554L52.1568 9.35463L52.2431 9.28263C51.7778 8.72227 51.1249 8.43978 50.3187 8.44147C49.5858 8.44057 48.941 8.70382 48.4077 9.22244C47.8692 9.74277 47.5987 10.4278 47.5995 11.25C47.5987 12.0723 47.8692 12.7573 48.4077 13.2776C48.941 13.7962 49.5858 14.0595 50.3187 14.0586C51.0934 14.06 51.7534 13.7958 52.2731 13.272C52.6203 12.9221 52.8169 12.4374 52.8685 11.8349L52.8789 11.7127H50.4306V11.127H53.5723V11.0145L53.462 11.0343C53.4927 11.2048 53.5072 11.3669 53.5072 11.5238H53.6191H53.731C53.731 11.3528 53.7152 11.1771 53.6824 10.9943L53.6658 10.902H50.2068V11.8252V11.9377H52.757V11.8252L52.6455 11.8156C52.5962 12.3816 52.4169 12.8079 52.1148 13.1129C51.634 13.5945 51.0439 13.8322 50.3187 13.8336C49.6382 13.8327 49.0608 13.5971 48.5629 13.116C48.0699 12.6365 47.8245 12.0244 47.8233 11.25C47.8245 10.4757 48.0699 9.86362 48.5629 9.38409C49.0608 8.90294 49.6382 8.66737 50.3187 8.66647C51.0755 8.66827 51.6468 8.91959 52.0712 9.42721L52.1499 9.52124L52.8262 8.8405L52.8986 8.76761L52.8326 8.68885C52.5577 8.35934 52.1914 8.09778 51.7411 7.9036C51.29 7.70887 50.814 7.61133 50.3187 7.61133C49.3239 7.61043 48.4654 7.96199 47.769 8.65769C47.0701 9.35204 46.7179 10.2248 46.7188 11.25C46.7179 12.2748 47.0701 13.1481 47.7695 13.8428C48.4654 14.5381 49.3239 14.8892 50.3187 14.8882C51.3547 14.8892 52.2142 14.5432 52.8663 13.8546L52.7854 13.7769L52.8645 13.8564C53.4441 13.2741 53.7317 12.4875 53.731 11.5238H53.6191Z" fill="white"/>
<path d="M58.7778 8.70424H55.7202V10.8445H58.4775V11.6556H55.7202V13.7958H58.7778V14.625H54.8582V7.875H58.7778V8.70424Z" fill="white"/>
<path d="M58.7767 8.70419V8.59169H55.6071V10.9569H58.3645V11.5427L55.6071 11.543V13.9083H58.6648V14.5125H54.9689V7.98745H58.6648V8.70419H58.7767H58.8886V7.87495V7.76245H54.7451V14.7375H58.8886V13.7958V13.6833H55.8309V11.768H58.5883V10.8444V10.7319H55.8309V8.81669H58.8886V8.70419H58.7767Z" fill="white"/>
<path d="M62.4159 14.625H61.5525V8.70424H59.6772V7.875H64.2911V8.70424H62.4159V14.625Z" fill="white"/>
<path d="M62.415 14.625V14.5125H61.6635V8.59169H59.7883V7.98745H64.1783V8.59169H62.3031V14.625H62.415H62.5269V8.81669H64.4021V7.87495V7.76245H59.5645V8.70419V8.81669H61.4397V14.7375H62.415H62.5269V14.625H62.415Z" fill="white"/>
<path d="M67.6292 14.625V7.875H68.4916V14.625H67.6292Z" fill="white"/>
<path d="M67.6283 14.625H67.7402V7.98745H68.3788V14.5125H67.6283V14.625V14.7375H68.4907H68.6026V7.76245H67.6283H67.5164V14.7375H67.6283V14.625Z" fill="white"/>
<path d="M72.3184 14.625H71.455V8.70424H69.5798V7.875H74.1935V8.70424H72.3184V14.625Z" fill="white"/>
<path d="M72.3172 14.625V14.5125H71.5658V8.59169H69.6906V7.98745H74.0805V8.59169H72.2053V14.625H72.3172H72.4291V8.81669H74.3043V7.87495V7.76245H69.4668V8.70419V8.81669H71.342V14.7375H72.3172H72.4291V14.625H72.3172Z" fill="white"/>
<path d="M78.6404 13.1874C79.1374 13.6932 79.7455 13.9459 80.4645 13.9459C81.1836 13.9459 81.7921 13.6932 82.2882 13.1874C82.7857 12.6816 83.0348 12.035 83.0348 11.2498C83.0348 10.4645 82.7857 9.81805 82.2882 9.31225C81.7921 8.80645 81.1836 8.55377 80.4645 8.55377C79.7455 8.55377 79.1374 8.80645 78.6404 9.31225C78.1442 9.81805 77.8952 10.4645 77.8952 11.2498C77.8952 12.035 78.1442 12.6816 78.6404 13.1874ZM82.9264 13.7525C82.2662 14.435 81.4453 14.7755 80.4645 14.7755C79.4827 14.7755 78.6623 14.435 78.0036 13.7525C77.343 13.0709 77.0144 12.2364 77.0144 11.2498C77.0144 10.2632 77.343 9.4287 78.0036 8.74716C78.6623 8.06462 79.4827 7.72363 80.4645 7.72363C81.4402 7.72363 82.2589 8.06642 82.922 8.75155C83.5843 9.43667 83.9156 10.2694 83.9156 11.2498C83.9156 12.2364 83.585 13.0709 82.9264 13.7525Z" fill="white"/>
<path d="M78.6412 13.1876L78.5616 13.2667C79.0771 13.7928 79.7201 14.06 80.4653 14.0586C81.2101 14.06 81.854 13.7928 82.3685 13.2667C82.8874 12.7402 83.1483 12.0591 83.1475 11.25C83.1483 10.441 82.8874 9.75984 82.3685 9.23336C81.854 8.70731 81.2101 8.44012 80.4653 8.44147C79.7201 8.44012 79.0771 8.70731 78.5616 9.23336C78.0441 9.75984 77.7827 10.441 77.7841 11.25C77.7827 12.0591 78.0441 12.7402 78.5616 13.2667L78.6412 13.1876L78.7208 13.1085C78.2461 12.6229 78.0087 12.012 78.0079 11.25C78.0087 10.4881 78.2461 9.87721 78.7208 9.39149C79.1998 8.90598 79.772 8.66782 80.4653 8.66647C81.1581 8.66782 81.7316 8.90598 82.2094 9.39149C82.685 9.87721 82.9223 10.4881 82.9233 11.25C82.9223 12.012 82.685 12.6229 82.2094 13.1085C81.7316 13.5941 81.1581 13.8322 80.4653 13.8336C79.772 13.8322 79.1998 13.5941 78.7208 13.1085L78.6412 13.1876ZM82.9272 13.7527L82.8472 13.6746C82.2055 14.3355 81.4209 14.6619 80.4653 14.6632C79.5093 14.6619 78.7247 14.3355 78.0843 13.6746C77.444 13.0114 77.128 12.2116 77.1271 11.25C77.128 10.2885 77.444 9.48871 78.0843 8.82554C78.7247 8.16461 79.5093 7.83768 80.4653 7.83633C81.4147 7.83768 82.1976 8.16596 82.8428 8.83038C83.4854 9.49659 83.8032 10.2952 83.8045 11.25C83.8032 12.2116 83.4862 13.0114 82.8472 13.6746L82.9272 13.7527L83.0077 13.8309C83.686 13.1304 84.029 12.2617 84.0283 11.25C84.029 10.2441 83.6847 9.37715 83.0032 8.67355C82.3213 7.96727 81.4671 7.61009 80.4653 7.61133C79.4582 7.61009 78.6015 7.96558 77.924 8.66916C77.2442 9.37003 76.9024 10.2384 76.9033 11.25C76.9024 12.2617 77.2442 13.1304 77.924 13.8313C78.6015 14.5348 79.4582 14.8892 80.4653 14.8882C81.472 14.8892 82.3287 14.5344 83.0077 13.8309L82.9272 13.7527Z" fill="white"/>
<path d="M85.1267 14.625V7.875H86.1767L89.4398 13.126H89.4769L89.4398 11.8252V7.875H90.3031V14.625H89.4026L85.9887 9.11948H85.9515L85.9887 10.4208V14.625H85.1267Z" fill="white"/>
<path d="M85.1275 14.625H85.2394V7.98745H86.1153L89.3784 13.2385H89.4777H89.5926L89.5524 11.8234V7.98745H90.1919V14.5125H89.4655L86.0516 9.00693H85.9523H85.8374L85.8776 10.4225V14.5125H85.1275V14.625V14.7375H85.9895H86.1014V10.4189L86.0642 9.11639L85.9523 9.11943V9.23193H85.9895V9.11943L85.8946 9.17928L89.3413 14.7375H90.3038H90.4157V7.76245H89.4405H89.3286V11.8265L89.3658 13.129L89.4777 13.126V13.0135H89.4405V13.126L89.5354 13.0663L86.2395 7.76245H85.1275H85.0156V14.7375H85.1275V14.625Z" fill="white"/>
<path d="M120.221 33.75H122.309V19.6862H120.221V33.75ZM139.028 24.7522L136.634 30.8496H136.563L134.078 24.7522H131.829L135.554 33.2745L133.431 38.0148H135.609L141.35 24.7522H139.028ZM127.187 32.1526C126.501 32.1526 125.548 31.8089 125.548 30.9582C125.548 29.8727 126.736 29.4565 127.761 29.4565C128.68 29.4565 129.111 29.6555 129.67 29.9272C129.508 31.2298 128.391 32.1526 127.187 32.1526ZM127.438 24.4445C125.927 24.4445 124.361 25.1143 123.713 26.5979L125.566 27.3757C125.962 26.5979 126.7 26.3444 127.474 26.3444C128.554 26.3444 129.651 26.996 129.67 28.154V28.2986C129.291 28.0815 128.482 27.7559 127.492 27.7559C125.494 27.7559 123.46 28.8593 123.46 30.9221C123.46 32.8038 125.098 34.0163 126.933 34.0163C128.338 34.0163 129.111 33.383 129.598 32.6413H129.67V33.7267H131.685V28.3346C131.685 25.8381 129.832 24.4445 127.438 24.4445ZM114.533 26.4643H111.564V21.6436H114.533C116.094 21.6436 116.981 22.9429 116.981 24.0539C116.981 25.1437 116.094 26.4643 114.533 26.4643ZM114.48 19.6862H109.476V33.75H111.564V28.4217H114.48C116.794 28.4217 119.069 26.7372 119.069 24.0539C119.069 21.3706 116.794 19.6862 114.48 19.6862ZM87.1971 32.1552C85.7546 32.1552 84.5468 30.9409 84.5468 29.2733C84.5468 27.5881 85.7546 26.3553 87.1971 26.3553C88.6212 26.3553 89.7389 27.5881 89.7389 29.2733C89.7389 30.9409 88.6212 32.1552 87.1971 32.1552ZM89.5947 25.5397H89.5225C89.054 24.9781 88.1522 24.4705 87.0165 24.4705C84.6369 24.4705 82.4557 26.5728 82.4557 29.2733C82.4557 31.9557 84.6369 34.04 87.0165 34.04C88.1522 34.04 89.054 33.5324 89.5225 32.9528H89.5947V33.6414C89.5947 35.4723 88.6212 36.4509 87.0528 36.4509C85.7729 36.4509 84.9796 35.5263 84.6548 34.7471L82.8342 35.5083C83.3571 36.7769 84.7453 38.3358 87.0528 38.3358C89.5046 38.3358 91.5778 36.8854 91.5778 33.3514V24.7606H89.5947V25.5397ZM93.0199 33.75H95.1109V19.6857H93.0199V33.75ZM98.1938 29.1103C98.1397 27.2614 99.6186 26.3193 100.682 26.3193C101.512 26.3193 102.214 26.7359 102.448 27.3345L98.1938 29.1103ZM104.684 27.5155C104.288 26.4458 103.079 24.4705 100.61 24.4705C98.1574 24.4705 96.1208 26.4098 96.1208 29.2553C96.1208 31.9377 98.1397 34.04 100.844 34.04C103.025 34.04 104.288 32.6988 104.811 31.9196L103.188 30.832C102.647 31.6296 101.908 32.1552 100.844 32.1552C99.78 32.1552 99.0237 31.6657 98.536 30.7054L104.899 28.0591L104.684 27.5155ZM53.9833 25.9386V27.9685H58.8147C58.6704 29.1103 58.2918 29.9439 57.7149 30.5239C57.012 31.231 55.9122 32.0102 53.9833 32.0102C51.0086 32.0102 48.6832 29.5998 48.6832 26.6093C48.6832 23.6188 51.0086 21.208 53.9833 21.208C55.5878 21.208 56.7593 21.8425 57.6248 22.6581L59.0489 21.2265C57.8412 20.0663 56.2365 19.1782 53.9833 19.1782C49.9088 19.1782 46.4836 22.5132 46.4836 26.6093C46.4836 30.7054 49.9088 34.04 53.9833 34.04C56.1828 34.04 57.8412 33.3154 59.139 31.9557C60.4731 30.6145 60.8879 28.7297 60.8879 27.2074C60.8879 26.7359 60.852 26.3013 60.7795 25.9386H53.9833ZM66.3807 32.1552C64.9382 32.1552 63.6942 30.9589 63.6942 29.2553C63.6942 27.5335 64.9382 26.3553 66.3807 26.3553C67.8228 26.3553 69.0667 27.5335 69.0667 29.2553C69.0667 30.9589 67.8228 32.1552 66.3807 32.1552ZM66.3807 24.4705C63.7484 24.4705 61.603 26.4823 61.603 29.2553C61.603 32.0102 63.7484 34.04 66.3807 34.04C69.0126 34.04 71.158 32.0102 71.158 29.2553C71.158 26.4823 69.0126 24.4705 66.3807 24.4705ZM76.8024 32.1552C75.3605 32.1552 74.1163 30.9589 74.1163 29.2553C74.1163 27.5335 75.3605 26.3553 76.8024 26.3553C78.2445 26.3553 79.4885 27.5335 79.4885 29.2553C79.4885 30.9589 78.2445 32.1552 76.8024 32.1552ZM76.8024 24.4705C74.1701 24.4705 72.0252 26.4823 72.0252 29.2553C72.0252 32.0102 74.1701 34.04 76.8024 34.04C79.4344 34.04 81.5797 32.0102 81.5797 29.2553C81.5797 26.4823 79.4344 24.4705 76.8024 24.4705Z" fill="white"/>
<path d="M12.3176 36.4382L12.2344 36.3582C11.9087 36.0118 11.7166 35.474 11.7166 34.7775V34.9414V10.0609V10.2257C11.7166 9.47157 11.9406 8.90339 12.3162 8.56274L26.1806 22.5009L12.3176 36.4382Z" fill="url(#paint0_linear_2_898)"/>
<path d="M30.8035 27.1485L26.1814 22.5008L30.803 17.854L36.3828 21.0409C37.0914 21.4458 37.4892 21.9674 37.5557 22.5004C37.5557 22.5008 37.5557 22.5018 37.5557 22.5025C37.4892 23.0343 37.0914 23.5564 36.3828 23.9611L30.8035 27.1485Z" fill="url(#paint1_linear_2_898)"/>
<path d="M13.3061 36.804C12.9188 36.8045 12.5808 36.6774 12.3173 36.4384L26.1804 22.5007L30.8025 27.1483L14.5596 36.4265C14.1103 36.6827 13.6845 36.804 13.3061 36.804ZM12.3134 36.6001C12.2889 36.5778 12.2648 36.554 12.2412 36.5294L12.3134 36.6001Z" fill="url(#paint2_linear_2_898)"/>
<path d="M26.1801 22.5009L12.3157 8.56274C12.5792 8.32413 12.9168 8.19757 13.3036 8.19757C13.683 8.19757 14.1092 8.31929 14.5595 8.5759L30.8018 17.8541L26.1801 22.5009ZM14.5595 8.41165C14.1092 8.15493 13.683 8.0332 13.3036 8.0332C13.3018 8.0332 13.3006 8.0332 13.2987 8.0332C13.301 8.0332 13.3026 8.0332 13.3054 8.0332C13.684 8.0332 14.1096 8.15493 14.5595 8.41165Z" fill="url(#paint3_linear_2_898)"/>
<path d="M12.3164 36.6032L12.3129 36.6002C12.3141 36.6011 12.3155 36.6024 12.3164 36.6032ZM12.2407 36.5294L12.2336 36.5225C12.2363 36.5251 12.2385 36.5272 12.2407 36.5294Z" fill="black"/>
<path d="M13.306 36.9689C12.9188 36.9689 12.5804 36.8419 12.3168 36.6028C12.316 36.6019 12.3141 36.6012 12.3129 36.6002L12.2407 36.5295C12.2385 36.5273 12.2363 36.5247 12.2336 36.522L12.3168 36.4385C12.5804 36.6776 12.9183 36.8046 13.3056 36.8041C13.6841 36.8041 14.1099 36.6828 14.5592 36.4267L30.802 27.1484L30.906 27.2531L30.8007 27.3133L14.5592 36.591C14.1497 36.8244 13.7602 36.9461 13.4083 36.9663C13.3737 36.968 13.3396 36.9689 13.306 36.9689Z" fill="url(#paint4_linear_2_898)"/>
<path d="M12.2344 36.522C11.9087 36.1756 11.7166 35.6383 11.7166 34.9413V34.7773C11.7166 35.4739 11.9087 36.0117 12.2344 36.3582L12.3176 36.4381L12.2344 36.522Z" fill="url(#paint5_linear_2_898)"/>
<path d="M30.9061 27.2529L30.802 27.1483L36.3813 23.961C37.09 23.5563 37.4878 23.0342 37.5542 22.5024C37.5542 22.6976 37.5109 22.8927 37.4248 23.0826C37.2513 23.4653 36.9034 23.827 36.3813 24.1253L30.9061 27.2529Z" fill="url(#paint6_linear_2_898)"/>
<path d="M37.5546 22.5008C37.5541 21.9124 37.1629 21.3235 36.3816 20.877C37.1637 21.3235 37.5554 21.9124 37.5546 22.5008Z" fill="#404040"/>
<path d="M37.5546 22.5005C37.4881 21.9674 37.0904 21.4458 36.3818 21.041L30.802 17.8541L30.9061 17.7495L36.3818 20.8771C37.163 21.3236 37.5542 21.912 37.5546 22.5005Z" fill="url(#paint7_linear_2_898)"/>
<path d="M11.7217 9.86046C11.7865 8.70472 12.4116 8.03714 13.2958 8.0332C12.9124 8.03545 12.5785 8.16202 12.3171 8.39883L12.3139 8.40153C12.2864 8.4265 12.2602 8.45294 12.2344 8.48017C11.9406 8.79258 11.7553 9.26058 11.7217 9.86046Z" fill="#404040"/>
<path d="M11.7166 10.2255V10.0612C11.7166 10.0589 11.7166 10.0571 11.7166 10.055V10.0537C11.7166 9.9916 11.7182 9.93103 11.7213 9.87216V9.86944L11.7217 9.86691C11.7217 9.86503 11.7217 9.86157 11.7217 9.86157V9.86025C11.7553 9.26039 11.9406 8.79239 12.2344 8.47998L12.3162 8.56256C11.9406 8.90321 11.7166 9.47128 11.7166 10.2255ZM12.3139 8.40134L12.3171 8.39819L12.3139 8.40134Z" fill="url(#paint8_linear_2_898)"/>
<path d="M30.8015 17.8541L14.5592 8.5759C14.1089 8.31929 13.6828 8.19757 13.3033 8.19757C12.9165 8.19757 12.579 8.32413 12.3155 8.56274L12.2336 8.48017C12.2596 8.45294 12.2857 8.4265 12.3133 8.40153C12.3141 8.40063 12.3155 8.39973 12.3164 8.39883C12.5777 8.16202 12.9117 8.03545 13.295 8.0332C13.296 8.0332 13.2972 8.0332 13.2986 8.0332C13.3003 8.0332 13.3016 8.0332 13.3033 8.0332C13.6828 8.0332 14.1089 8.15493 14.5592 8.41165L30.906 17.7492L30.8015 17.8541Z" fill="url(#paint9_linear_2_898)"/>
<path d="M144.165 0.46875H8.01755C4.15494 0.46875 1.02368 3.61675 1.02368 7.5V37.5C1.02368 41.3833 4.15494 44.5312 8.01755 44.5312H144.165C148.027 44.5312 151.159 41.3833 151.159 37.5V7.5C151.159 3.61675 148.027 0.46875 144.165 0.46875Z" stroke="#A6A6A6"/>
</g>
<defs>
<linearGradient id="paint0_linear_2_898" x1="24.9513" y1="9.79847" x2="6.0712" y2="28.5781" gradientUnits="userSpaceOnUse">
<stop stop-color="#00A0FF"/>
<stop offset="0.00657445" stop-color="#00A1FF"/>
<stop offset="0.2601" stop-color="#00BEFF"/>
<stop offset="0.5122" stop-color="#00D2FF"/>
<stop offset="0.7604" stop-color="#00DFFF"/>
<stop offset="1" stop-color="#00E3FF"/>
</linearGradient>
<linearGradient id="paint1_linear_2_898" x1="38.419" y1="22.5016" x2="11.3421" y2="22.5016" gradientUnits="userSpaceOnUse">
<stop stop-color="#FFE000"/>
<stop offset="0.4087" stop-color="#FFBD00"/>
<stop offset="0.7754" stop-color="#FFA500"/>
<stop offset="1" stop-color="#FF9C00"/>
</linearGradient>
<linearGradient id="paint2_linear_2_898" x1="28.3385" y1="25.0829" x2="2.73575" y2="50.5495" gradientUnits="userSpaceOnUse">
<stop stop-color="#FF3A44"/>
<stop offset="1" stop-color="#C31162"/>
</linearGradient>
<linearGradient id="paint3_linear_2_898" x1="8.7222" y1="0.198252" x2="20.1549" y2="11.5702" gradientUnits="userSpaceOnUse">
<stop stop-color="#32A071"/>
<stop offset="0.0685" stop-color="#2DA771"/>
<stop offset="0.4762" stop-color="#15CF74"/>
<stop offset="0.8009" stop-color="#06E775"/>
<stop offset="1" stop-color="#00F076"/>
</linearGradient>
<linearGradient id="paint4_linear_2_898" x1="28.338" y1="25.083" x2="2.73531" y2="50.5497" gradientUnits="userSpaceOnUse">
<stop stop-color="#CC2E36"/>
<stop offset="1" stop-color="#9C0E4E"/>
</linearGradient>
<linearGradient id="paint5_linear_2_898" x1="24.9513" y1="9.79831" x2="6.07119" y2="28.578" gradientUnits="userSpaceOnUse">
<stop stop-color="#008DE0"/>
<stop offset="0.00657445" stop-color="#008DE0"/>
<stop offset="0.2601" stop-color="#00A7E0"/>
<stop offset="0.5122" stop-color="#00B8E0"/>
<stop offset="0.7604" stop-color="#00C4E0"/>
<stop offset="1" stop-color="#00C7E0"/>
</linearGradient>
<linearGradient id="paint6_linear_2_898" x1="38.4175" y1="22.5014" x2="11.3407" y2="22.5014" gradientUnits="userSpaceOnUse">
<stop stop-color="#E0C500"/>
<stop offset="0.4087" stop-color="#E0A600"/>
<stop offset="0.7754" stop-color="#E09100"/>
<stop offset="1" stop-color="#E08900"/>
</linearGradient>
<linearGradient id="paint7_linear_2_898" x1="38.4179" y1="22.5016" x2="11.3411" y2="22.5016" gradientUnits="userSpaceOnUse">
<stop stop-color="#FFE840"/>
<stop offset="0.4087" stop-color="#FFCE40"/>
<stop offset="0.7754" stop-color="#FFBC40"/>
<stop offset="1" stop-color="#FFB540"/>
</linearGradient>
<linearGradient id="paint8_linear_2_898" x1="24.9512" y1="9.79828" x2="6.07121" y2="28.5779" gradientUnits="userSpaceOnUse">
<stop stop-color="#40B8FF"/>
<stop offset="0.00657445" stop-color="#40B9FF"/>
<stop offset="0.2601" stop-color="#40CEFF"/>
<stop offset="0.5122" stop-color="#40DDFF"/>
<stop offset="0.7604" stop-color="#40E7FF"/>
<stop offset="1" stop-color="#40EAFF"/>
</linearGradient>
<linearGradient id="paint9_linear_2_898" x1="8.72198" y1="0.198257" x2="20.1546" y2="11.5701" gradientUnits="userSpaceOnUse">
<stop stop-color="#65B895"/>
<stop offset="0.0685" stop-color="#62BD95"/>
<stop offset="0.4762" stop-color="#50DB97"/>
<stop offset="0.8009" stop-color="#44ED98"/>
<stop offset="1" stop-color="#40F498"/>
</linearGradient>
<clipPath id="clip0_2_898">
<rect width="152" height="45" fill="white"/>
</clipPath>
</defs>
</svg>
