<svg width="24" height="24" viewBox="0 0 24 24" fill="none" xmlns="http://www.w3.org/2000/svg">
<path d="M19.0002 2H5C3 2 2 3 2 5L2.00059 19C2.00059 21 3.00021 22 5.00021 22H19.0002C21.0002 22 22.0002 21 22.0002 19V5C22.0002 3 21.0002 2 19.0002 2ZM8.66687 17.8334H6.16687V8.66667H8.66687V17.8334ZM7.41687 7.61C6.61187 7.61 5.95854 6.95167 5.95854 6.14C5.95854 5.32833 6.61187 4.67 7.41687 4.67C8.22187 4.67 8.87521 5.32833 8.87521 6.14C8.87521 6.95167 8.22271 7.61 7.41687 7.61ZM18.6669 17.8334H16.1669V13.1634C16.1669 10.3567 12.8335 10.5692 12.8335 13.1634V17.8334H10.3335V8.66667H12.8335V10.1375C13.9969 7.9825 18.6669 7.82334 18.6669 12.2009V17.8334Z" fill="white"/>
</svg>
