<svg width="24" height="24" viewBox="0 0 24 24" fill="none" xmlns="http://www.w3.org/2000/svg">
<path d="M8.66721 12C8.66721 10.1591 10.1591 8.6664 12 8.6664C13.8409 8.6664 15.3336 10.1591 15.3336 12C15.3336 13.8409 13.8409 15.3336 12 15.3336C10.1591 15.3336 8.66721 13.8409 8.66721 12ZM6.86511 12C6.86511 14.836 9.16398 17.1349 12 17.1349C14.836 17.1349 17.1349 14.836 17.1349 12C17.1349 9.16397 14.836 6.8651 12 6.8651C9.16398 6.8651 6.86511 9.16397 6.86511 12ZM16.1381 6.66155C16.1381 7.32391 16.6753 7.86187 17.3385 7.86187C18.0008 7.86187 18.5388 7.32391 18.5388 6.66155C18.5388 5.99919 18.0016 5.46204 17.3385 5.46204C16.6753 5.46204 16.1381 5.99919 16.1381 6.66155ZM7.95961 20.1397C6.98465 20.0953 6.45477 19.933 6.10259 19.7956C5.6357 19.6139 5.30291 19.3974 4.95234 19.0477C4.60259 18.6979 4.3853 18.3651 4.20436 17.8982C4.06704 17.546 3.90469 17.0162 3.86026 16.0412C3.81179 14.9871 3.8021 14.6704 3.8021 12C3.8021 9.32956 3.8126 9.01373 3.86026 7.9588C3.90469 6.98384 4.06785 6.45477 4.20436 6.10178C4.38611 5.63489 4.60259 5.3021 4.95234 4.95153C5.3021 4.60178 5.6349 4.38449 6.10259 4.20355C6.45477 4.06624 6.98465 3.90388 7.95961 3.85945C9.01373 3.81099 9.33037 3.80129 12 3.80129C14.6704 3.80129 14.9863 3.81179 16.0412 3.85945C17.0162 3.90388 17.5452 4.06704 17.8982 4.20355C18.3651 4.38449 18.6979 4.60178 19.0485 4.95153C19.3982 5.30129 19.6147 5.63489 19.7964 6.10178C19.9338 6.45396 20.0961 6.98384 20.1406 7.9588C20.189 9.01373 20.1987 9.32956 20.1987 12C20.1987 14.6696 20.189 14.9863 20.1406 16.0412C20.0961 17.0162 19.933 17.546 19.7964 17.8982C19.6147 18.3651 19.3982 18.6979 19.0485 19.0477C18.6987 19.3974 18.3651 19.6139 17.8982 19.7956C17.546 19.933 17.0162 20.0953 16.0412 20.1397C14.9871 20.1882 14.6704 20.1979 12 20.1979C9.33037 20.1979 9.01373 20.1882 7.95961 20.1397ZM7.87722 2.06058C6.8126 2.10905 6.08562 2.27787 5.44992 2.52504C4.79241 2.78029 4.23506 3.12278 3.67851 3.67851C3.12278 4.23425 2.78029 4.7916 2.52504 5.44992C2.27787 6.08562 2.10905 6.8126 2.06058 7.87722C2.01131 8.94346 2 9.28433 2 12C2 14.7157 2.01131 15.0565 2.06058 16.1228C2.10905 17.1874 2.27787 17.9144 2.52504 18.5501C2.78029 19.2076 3.12197 19.7658 3.67851 20.3215C4.23425 20.8772 4.7916 21.2189 5.44992 21.475C6.08643 21.7221 6.8126 21.891 7.87722 21.9394C8.94427 21.9879 9.28433 22 12 22C14.7165 22 15.0565 21.9887 16.1228 21.9394C17.1874 21.891 17.9144 21.7221 18.5501 21.475C19.2076 21.2189 19.7649 20.8772 20.3215 20.3215C20.8772 19.7658 21.2189 19.2076 21.475 18.5501C21.7221 17.9144 21.8918 17.1874 21.9394 16.1228C21.9879 15.0557 21.9992 14.7157 21.9992 12C21.9992 9.28433 21.9879 8.94346 21.9394 7.87722C21.891 6.8126 21.7221 6.08562 21.475 5.44992C21.2189 4.79241 20.8772 4.23506 20.3215 3.67851C19.7658 3.12278 19.2076 2.78029 18.5509 2.52504C17.9144 2.27787 17.1874 2.10824 16.1236 2.06058C15.0574 2.01212 14.7165 2 12.0008 2C9.28433 2 8.94427 2.01131 7.87722 2.06058Z" fill="white"/>
</svg>
