<svg width="24" height="24" viewBox="0 0 24 24" fill="none" xmlns="http://www.w3.org/2000/svg">
<path d="M22 5.89418C21.2642 6.21575 20.4733 6.43232 19.6433 6.52994C20.4908 6.03035 21.1417 5.23872 21.4475 4.29532C20.655 4.758 19.7767 5.09434 18.8417 5.27564C18.0942 4.49057 17.0267 4 15.8467 4C13.1975 4 11.2508 6.43314 11.8492 8.95898C8.44 8.79081 5.41667 7.18294 3.3925 4.73913C2.3175 6.55455 2.835 8.92945 4.66167 10.1321C3.99 10.1107 3.35667 9.92945 2.80417 9.62674C2.75917 11.4979 4.12167 13.2486 6.095 13.6382C5.5175 13.7925 4.885 13.8285 4.24167 13.7071C4.76333 15.3117 6.27833 16.4791 8.075 16.5119C6.35 17.8433 4.17667 18.4381 2 18.1854C3.81583 19.3314 5.97333 20 8.29 20C15.9083 20 20.2125 13.6661 19.9525 7.98523C20.7542 7.41509 21.45 6.70386 22 5.89418Z" fill="white"/>
</svg>
